<svg xmlns="http://www.w3.org/2000/svg" xmlns:xlink="http://www.w3.org/1999/xlink" width="400" zoomAndPan="magnify" viewBox="0 0 300 135.000003" height="180" preserveAspectRatio="xMidYMid meet" version="1.0"><defs><g/><clipPath id="6834b86a2d"><path d="M 162.636719 20 L 293 20 L 293 31 L 162.636719 31 Z M 162.636719 20 " clip-rule="nonzero"/></clipPath><clipPath id="c97f086752"><path d="M 209 27 L 298.878906 27 L 298.878906 50 L 209 50 Z M 209 27 " clip-rule="nonzero"/></clipPath><clipPath id="dd20ea88cc"><path d="M 268 32 L 298.894531 32 L 298.894531 64 L 268 64 Z M 268 32 " clip-rule="nonzero"/></clipPath><clipPath id="92565e0248"><path d="M 1.101562 44 L 46 44 L 46 84 L 1.101562 84 Z M 1.101562 44 " clip-rule="nonzero"/></clipPath><clipPath id="1c0d5d579c"><path d="M 84 50 L 128.410156 50 L 128.410156 90 L 84 90 Z M 84 50 " clip-rule="nonzero"/></clipPath></defs><g clip-path="url(#6834b86a2d)"><path fill="#0071c7" d="M 162.636719 20.546875 C 198.328125 35.367188 233.007812 16.683594 292.6875 30.910156 C 292.6875 30.910156 283.703125 20.546875 264.921875 20.546875 Z M 162.636719 20.546875 " fill-opacity="1" fill-rule="evenodd"/></g><g clip-path="url(#c97f086752)"><path fill="#2e3192" d="M 209.539062 28.480469 C 264.238281 30.171875 277.835938 47.171875 298.878906 49.953125 C 298.878906 49.953125 298.8125 35.65625 298.878906 34.617188 C 298.878906 34.617188 268.070312 24.945312 209.539062 28.480469 Z M 209.539062 28.480469 " fill-opacity="1" fill-rule="evenodd"/></g><g fill="#0071bc" fill-opacity="1"><g transform="translate(124.27182, 63.153221)"><g><path d="M 3.90625 0 L 3.90625 -30.984375 L 10.46875 -30.984375 L 10.46875 0 Z M 3.90625 0 "/></g></g></g><g fill="#0071bc" fill-opacity="1"><g transform="translate(138.640481, 63.153221)"><g><path d="M 31.390625 0 L 23.03125 0 L 9.5625 -23.4375 L 9.375 -23.4375 C 9.632812 -19.300781 9.765625 -16.347656 9.765625 -14.578125 L 9.765625 0 L 3.90625 0 L 3.90625 -30.984375 L 12.1875 -30.984375 L 25.640625 -7.78125 L 25.796875 -7.78125 C 25.578125 -11.800781 25.46875 -14.644531 25.46875 -16.3125 L 25.46875 -30.984375 L 31.390625 -30.984375 Z M 31.390625 0 "/></g></g></g><g fill="#0071bc" fill-opacity="1"><g transform="translate(173.926357, 63.153221)"><g><path d="M 22.1875 -8.609375 C 22.1875 -5.804688 21.179688 -3.597656 19.171875 -1.984375 C 17.160156 -0.378906 14.359375 0.421875 10.765625 0.421875 C 7.460938 0.421875 4.539062 -0.195312 2 -1.4375 L 2 -7.546875 C 4.082031 -6.609375 5.847656 -5.945312 7.296875 -5.5625 C 8.742188 -5.1875 10.070312 -5 11.28125 -5 C 12.71875 -5 13.820312 -5.273438 14.59375 -5.828125 C 15.363281 -6.378906 15.75 -7.195312 15.75 -8.28125 C 15.75 -8.894531 15.578125 -9.4375 15.234375 -9.90625 C 14.898438 -10.382812 14.40625 -10.84375 13.75 -11.28125 C 13.09375 -11.71875 11.753906 -12.414062 9.734375 -13.375 C 7.835938 -14.257812 6.414062 -15.113281 5.46875 -15.9375 C 4.519531 -16.757812 3.765625 -17.710938 3.203125 -18.796875 C 2.640625 -19.890625 2.359375 -21.160156 2.359375 -22.609375 C 2.359375 -25.347656 3.285156 -27.503906 5.140625 -29.078125 C 6.992188 -30.648438 9.5625 -31.4375 12.84375 -31.4375 C 14.457031 -31.4375 15.992188 -31.242188 17.453125 -30.859375 C 18.910156 -30.472656 20.441406 -29.9375 22.046875 -29.25 L 19.921875 -24.140625 C 18.265625 -24.816406 16.894531 -25.289062 15.8125 -25.5625 C 14.738281 -25.832031 13.675781 -25.96875 12.625 -25.96875 C 11.382812 -25.96875 10.429688 -25.675781 9.765625 -25.09375 C 9.109375 -24.507812 8.78125 -23.753906 8.78125 -22.828125 C 8.78125 -22.242188 8.910156 -21.738281 9.171875 -21.3125 C 9.441406 -20.882812 9.867188 -20.46875 10.453125 -20.0625 C 11.046875 -19.65625 12.4375 -18.929688 14.625 -17.890625 C 17.519531 -16.503906 19.503906 -15.113281 20.578125 -13.71875 C 21.648438 -12.332031 22.1875 -10.628906 22.1875 -8.609375 Z M 22.1875 -8.609375 "/></g></g></g><g fill="#0071bc" fill-opacity="1"><g transform="translate(197.831739, 63.153221)"><g><path d="M 10.46875 -16.40625 L 12.625 -16.40625 C 14.644531 -16.40625 16.15625 -16.800781 17.15625 -17.59375 C 18.164062 -18.394531 18.671875 -19.5625 18.671875 -21.09375 C 18.671875 -22.632812 18.25 -23.769531 17.40625 -24.5 C 16.570312 -25.238281 15.253906 -25.609375 13.453125 -25.609375 L 10.46875 -25.609375 Z M 25.3125 -21.328125 C 25.3125 -17.984375 24.265625 -15.425781 22.171875 -13.65625 C 20.085938 -11.894531 17.125 -11.015625 13.28125 -11.015625 L 10.46875 -11.015625 L 10.46875 0 L 3.90625 0 L 3.90625 -30.984375 L 13.796875 -30.984375 C 17.554688 -30.984375 20.414062 -30.171875 22.375 -28.546875 C 24.332031 -26.929688 25.3125 -24.523438 25.3125 -21.328125 Z M 25.3125 -21.328125 "/></g></g></g><g fill="#0071bc" fill-opacity="1"><g transform="translate(225.08557, 63.153221)"><g><path d="M 3.90625 0 L 3.90625 -30.984375 L 10.46875 -30.984375 L 10.46875 0 Z M 3.90625 0 "/></g></g></g><g fill="#0071bc" fill-opacity="1"><g transform="translate(239.454231, 63.153221)"><g><path d="M 10.46875 -17.234375 L 12.59375 -17.234375 C 14.664062 -17.234375 16.195312 -17.578125 17.1875 -18.265625 C 18.175781 -18.960938 18.671875 -20.050781 18.671875 -21.53125 C 18.671875 -23 18.164062 -24.046875 17.15625 -24.671875 C 16.144531 -25.296875 14.582031 -25.609375 12.46875 -25.609375 L 10.46875 -25.609375 Z M 10.46875 -11.890625 L 10.46875 0 L 3.90625 0 L 3.90625 -30.984375 L 12.921875 -30.984375 C 17.140625 -30.984375 20.257812 -30.21875 22.28125 -28.6875 C 24.300781 -27.15625 25.3125 -24.828125 25.3125 -21.703125 C 25.3125 -19.878906 24.804688 -18.253906 23.796875 -16.828125 C 22.796875 -15.410156 21.378906 -14.300781 19.546875 -13.5 C 24.203125 -6.53125 27.238281 -2.03125 28.65625 0 L 21.359375 0 L 13.96875 -11.890625 Z M 10.46875 -11.890625 "/></g></g></g><g clip-path="url(#dd20ea88cc)"><g fill="#0071bc" fill-opacity="1"><g transform="translate(268.106781, 63.153221)"><g><path d="M 22.875 0 L 20.625 -7.375 L 9.328125 -7.375 L 7.078125 0 L 0 0 L 10.9375 -31.109375 L 18.96875 -31.109375 L 29.953125 0 Z M 19.046875 -12.890625 C 16.972656 -19.566406 15.804688 -23.34375 15.546875 -24.21875 C 15.285156 -25.101562 15.097656 -25.796875 14.984375 -26.296875 C 14.515625 -24.492188 13.179688 -20.023438 10.984375 -12.890625 Z M 19.046875 -12.890625 "/></g></g></g></g><g fill="#0071bc" fill-opacity="1"><g transform="translate(140.337718, 102.347234)"><g><path d="M 17.015625 0 L 9.5625 -24.3125 L 9.375 -24.3125 C 9.632812 -19.363281 9.765625 -16.0625 9.765625 -14.40625 L 9.765625 0 L 3.90625 0 L 3.90625 -30.984375 L 12.84375 -30.984375 L 20.171875 -7.296875 L 20.296875 -7.296875 L 28.078125 -30.984375 L 37.03125 -30.984375 L 37.03125 0 L 30.90625 0 L 30.90625 -14.671875 C 30.90625 -15.359375 30.914062 -16.15625 30.9375 -17.0625 C 30.957031 -17.96875 31.050781 -20.367188 31.21875 -24.265625 L 31.03125 -24.265625 L 23.03125 0 Z M 17.015625 0 "/></g></g></g><g fill="#0071bc" fill-opacity="1"><g transform="translate(181.260856, 102.347234)"><g><path d="M 21.75 0 L 3.90625 0 L 3.90625 -30.984375 L 21.75 -30.984375 L 21.75 -25.609375 L 10.46875 -25.609375 L 10.46875 -18.796875 L 20.96875 -18.796875 L 20.96875 -13.421875 L 10.46875 -13.421875 L 10.46875 -5.421875 L 21.75 -5.421875 Z M 21.75 0 "/></g></g></g><g fill="#0071bc" fill-opacity="1"><g transform="translate(205.568906, 102.347234)"><g><path d="M 29.609375 -15.796875 C 29.609375 -10.691406 28.15625 -6.78125 25.25 -4.0625 C 22.34375 -1.351562 18.148438 0 12.671875 0 L 3.90625 0 L 3.90625 -30.984375 L 13.625 -30.984375 C 18.6875 -30.984375 22.613281 -29.644531 25.40625 -26.96875 C 28.207031 -24.300781 29.609375 -20.578125 29.609375 -15.796875 Z M 22.78125 -15.625 C 22.78125 -22.28125 19.84375 -25.609375 13.96875 -25.609375 L 10.46875 -25.609375 L 10.46875 -5.421875 L 13.28125 -5.421875 C 19.613281 -5.421875 22.78125 -8.820312 22.78125 -15.625 Z M 22.78125 -15.625 "/></g></g></g><g fill="#0071bc" fill-opacity="1"><g transform="translate(237.697061, 102.347234)"><g><path d="M 3.90625 0 L 3.90625 -30.984375 L 10.46875 -30.984375 L 10.46875 0 Z M 3.90625 0 "/></g></g></g><g fill="#0071bc" fill-opacity="1"><g transform="translate(252.065722, 102.347234)"><g><path d="M 22.875 0 L 20.625 -7.375 L 9.328125 -7.375 L 7.078125 0 L 0 0 L 10.9375 -31.109375 L 18.96875 -31.109375 L 29.953125 0 Z M 19.046875 -12.890625 C 16.972656 -19.566406 15.804688 -23.34375 15.546875 -24.21875 C 15.285156 -25.101562 15.097656 -25.796875 14.984375 -26.296875 C 14.515625 -24.492188 13.179688 -20.023438 10.984375 -12.890625 Z M 19.046875 -12.890625 "/></g></g></g><g clip-path="url(#92565e0248)"><path fill="#2e3192" d="M 20.550781 44.210938 L 45.308594 44.210938 C 45.308594 68.023438 34.960938 82.339844 26.90625 83.019531 C 26.398438 83.039062 25.890625 83.046875 25.375 83.046875 L 20.550781 83.046875 C 15.179688 83.046875 10.316406 80.875 6.796875 77.359375 C 3.277344 73.84375 1.101562 68.992188 1.101562 63.628906 C 1.101562 52.902344 9.808594 44.210938 20.550781 44.210938 " fill-opacity="1" fill-rule="nonzero"/></g><path fill="#0071bc" d="M 84.203125 19.488281 L 84.203125 30.625 C 84.203125 39.324219 80.746094 47.664062 74.582031 53.816406 L 59.402344 68.976562 C 50.738281 77.625 39.117188 82.632812 26.90625 83.019531 C 34.960938 82.339844 45.308594 68.023438 45.308594 44.210938 L 45.308594 19.488281 C 45.308594 8.765625 54.015625 0.0703125 64.757812 0.0703125 C 75.496094 0.0703125 84.203125 8.765625 84.203125 19.488281 " fill-opacity="1" fill-rule="nonzero"/><g clip-path="url(#1c0d5d579c)"><path fill="#2e3192" d="M 108.964844 89.8125 L 84.203125 89.8125 C 84.203125 65.996094 94.554688 51.679688 102.605469 51 C 103.113281 50.984375 103.625 50.972656 104.136719 50.972656 L 108.964844 50.972656 C 114.332031 50.972656 119.195312 53.148438 122.714844 56.664062 C 126.234375 60.175781 128.414062 65.03125 128.414062 70.390625 C 128.414062 81.117188 119.703125 89.8125 108.964844 89.8125 " fill-opacity="1" fill-rule="nonzero"/></g><path fill="#0071bc" d="M 45.308594 114.53125 L 45.308594 103.398438 C 45.308594 94.699219 48.769531 86.355469 54.929688 80.203125 L 70.113281 65.046875 C 78.773438 56.398438 90.398438 51.386719 102.605469 51 C 94.554688 51.679688 84.203125 65.996094 84.203125 89.8125 L 84.203125 114.53125 C 84.203125 125.257812 75.496094 133.949219 64.757812 133.949219 C 54.015625 133.949219 45.308594 125.257812 45.308594 114.53125 " fill-opacity="1" fill-rule="nonzero"/></svg>