<svg xmlns="http://www.w3.org/2000/svg" xmlns:xlink="http://www.w3.org/1999/xlink" width="200" zoomAndPan="magnify" viewBox="0 0 150 74.999997" height="100" preserveAspectRatio="xMidYMid meet" version="1.0"><defs><g/><clipPath id="fbc11ba628"><path d="M 3.601562 24.824219 L 51 24.824219 L 51 72.226562 L 3.601562 72.226562 Z M 3.601562 24.824219 " clip-rule="nonzero"/></clipPath><clipPath id="10288aae04"><path d="M 27.300781 24.824219 C 14.210938 24.824219 3.601562 35.4375 3.601562 48.523438 C 3.601562 61.613281 14.210938 72.226562 27.300781 72.226562 C 40.390625 72.226562 51 61.613281 51 48.523438 C 51 35.4375 40.390625 24.824219 27.300781 24.824219 " clip-rule="nonzero"/></clipPath><clipPath id="d7be647e7a"><path d="M 51 4.800781 L 145.21875 4.800781 L 145.21875 23.785156 L 51 23.785156 Z M 51 4.800781 " clip-rule="nonzero"/></clipPath><clipPath id="9afe71a538"><path d="M 54.75 4.800781 L 141.300781 4.800781 C 143.371094 4.800781 145.050781 6.480469 145.050781 8.550781 L 145.050781 19.753906 C 145.050781 21.824219 143.371094 23.503906 141.300781 23.503906 L 54.75 23.503906 C 52.679688 23.503906 51 21.824219 51 19.753906 L 51 8.550781 C 51 6.480469 52.679688 4.800781 54.75 4.800781 " clip-rule="nonzero"/></clipPath><clipPath id="66c1bb1733"><path d="M 40 46 L 45.414062 46 L 45.414062 52 L 40 52 Z M 40 46 " clip-rule="nonzero"/></clipPath><clipPath id="58250614b8"><path d="M 24 31.273438 L 31 31.273438 L 31 37 L 24 37 Z M 24 31.273438 " clip-rule="nonzero"/></clipPath><clipPath id="d45164faeb"><path d="M 9.414062 46 L 15 46 L 15 52 L 9.414062 52 Z M 9.414062 46 " clip-rule="nonzero"/></clipPath><clipPath id="4bb6913a95"><path d="M 24 62 L 31 62 L 31 67.273438 L 24 67.273438 Z M 24 62 " clip-rule="nonzero"/></clipPath></defs><path fill="#ffffff" d="M 48.679688 3.507812 L 147.238281 3.507812 L 147.238281 25.589844 L 48.679688 25.589844 Z M 48.679688 3.507812 " fill-opacity="1" fill-rule="nonzero"/><path stroke-linecap="butt" transform="matrix(0.920245, 0, 0, 0.923818, 0.000003, 0.0908277)" fill-opacity="1" fill="#12bfae" fill-rule="nonzero" stroke-linejoin="miter" d="M 55.899659 53.001613 C 55.899659 53.864202 55.857211 54.72679 55.772315 55.589379 C 55.687419 56.447739 55.560075 57.30187 55.394529 58.151774 C 55.224737 58.997449 55.012497 59.834667 54.762055 60.663428 C 54.511612 61.49219 54.222966 62.304038 53.891872 63.103201 C 53.560779 63.902363 53.191482 64.680384 52.783982 65.44572 C 52.376482 66.206828 51.930779 66.946793 51.451117 67.665617 C 50.971456 68.384441 50.457836 69.077894 49.906013 69.745977 C 49.358435 70.418289 48.776898 71.056774 48.165648 71.66566 C 47.554398 72.278774 46.91768 72.858061 46.247002 73.40775 C 45.58057 73.957439 44.884424 74.469072 44.167055 74.951107 C 43.449685 75.433142 42.706846 75.877121 41.942784 76.283045 C 41.182966 76.688969 40.401924 77.061066 39.603903 77.390879 C 38.805883 77.720692 37.990883 78.01245 37.163148 78.261924 C 36.335414 78.515627 35.49919 78.722817 34.650231 78.891952 C 33.801273 79.061087 32.94807 79.187938 32.086377 79.272506 C 31.228929 79.357073 30.362992 79.399357 29.501299 79.399357 C 28.635362 79.399357 27.773669 79.357073 26.911976 79.272506 C 26.050283 79.187938 25.19708 79.061087 24.348122 78.891952 C 23.503408 78.722817 22.66294 78.515627 21.835205 78.261924 C 21.007471 78.01245 20.196716 77.720692 19.398695 77.390879 C 18.596429 77.061066 17.819632 76.688969 17.05557 76.283045 C 16.291507 75.877121 15.552914 75.433142 14.831299 74.951107 C 14.113929 74.469072 13.422028 73.957439 12.751351 73.40775 C 12.084919 72.858061 11.443955 72.278774 10.832705 71.66566 C 10.221455 71.056774 9.639919 70.418289 9.092341 69.745977 C 8.544762 69.077894 8.031143 68.384441 7.547236 67.665617 C 7.067575 66.946793 6.626117 66.206828 6.218617 65.44572 C 5.811117 64.680384 5.44182 63.902363 5.110726 63.103201 C 4.779632 62.304038 4.486742 61.49219 4.236299 60.663428 C 3.985856 59.834667 3.777861 58.997449 3.60807 58.151774 C 3.438278 57.30187 3.310934 56.447739 3.226038 55.589379 C 3.141143 54.72679 3.098695 53.864202 3.098695 53.001613 C 3.098695 52.134796 3.141143 51.272208 3.226038 50.413848 C 3.310934 49.551259 3.438278 48.697128 3.60807 47.851453 C 3.777861 47.001549 3.985856 46.164331 4.236299 45.33557 C 4.486742 44.511037 4.779632 43.69496 5.110726 42.895797 C 5.44182 42.096635 5.811117 41.318614 6.218617 40.553278 C 6.626117 39.79217 7.067575 39.052205 7.547236 38.333381 C 8.031143 37.614557 8.544762 36.921104 9.092341 36.253021 C 9.639919 35.584937 10.221455 34.942224 10.832705 34.333338 C 11.443955 33.720224 12.084919 33.140937 12.751351 32.591248 C 13.422028 32.045788 14.113929 31.529926 14.831299 31.047891 C 15.552914 30.570085 16.291507 30.126105 17.05557 29.715953 C 17.819632 29.310029 18.596429 28.942161 19.398695 28.608119 C 20.196716 28.278306 21.007471 27.986548 21.835205 27.737074 C 22.66294 27.4876 23.503408 27.276181 24.348122 27.107046 C 25.19708 26.937911 26.050283 26.81106 26.911976 26.726492 C 27.773669 26.641925 28.635362 26.599641 29.501299 26.599641 C 30.362992 26.599641 31.228929 26.641925 32.086377 26.726492 C 32.94807 26.81106 33.801273 26.937911 34.650231 27.107046 C 35.49919 27.276181 36.335414 27.4876 37.163148 27.737074 C 37.990883 27.986548 38.805883 28.278306 39.603903 28.608119 C 40.401924 28.942161 41.182966 29.310029 41.942784 29.715953 C 42.706846 30.126105 43.449685 30.570085 44.167055 31.047891 C 44.884424 31.529926 45.58057 32.045788 46.247002 32.591248 C 46.91768 33.140937 47.554398 33.720224 48.165648 34.333338 C 48.776898 34.942224 49.358435 35.584937 49.906013 36.253021 C 50.457836 36.921104 50.971456 37.614557 51.451117 38.333381 C 51.930779 39.052205 52.376482 39.79217 52.783982 40.553278 C 53.191482 41.318614 53.560779 42.096635 53.891872 42.895797 C 54.222966 43.69496 54.511612 44.511037 54.762055 45.33557 C 55.012497 46.164331 55.224737 47.001549 55.394529 47.851453 C 55.560075 48.697128 55.687419 49.551259 55.772315 50.413848 C 55.857211 51.272208 55.899659 52.134796 55.899659 53.001613 Z M 55.899659 53.001613 " stroke="#252a2e" stroke-width="3" stroke-opacity="1" stroke-miterlimit="4"/><path fill="#ffffff" d="M 35.574219 35.679688 C 35.574219 35.914062 35.53125 36.136719 35.441406 36.351562 C 35.351562 36.566406 35.226562 36.757812 35.0625 36.921875 C 34.898438 37.085938 34.710938 37.214844 34.496094 37.300781 C 34.28125 37.390625 34.058594 37.4375 33.828125 37.4375 C 33.59375 37.4375 33.371094 37.390625 33.15625 37.300781 C 32.941406 37.214844 32.753906 37.085938 32.589844 36.921875 C 32.425781 36.757812 32.300781 36.566406 32.210938 36.351562 C 32.121094 36.136719 32.078125 35.914062 32.078125 35.679688 C 32.078125 35.449219 32.121094 35.222656 32.210938 35.007812 C 32.300781 34.792969 32.425781 34.605469 32.589844 34.441406 C 32.753906 34.273438 32.941406 34.148438 33.15625 34.058594 C 33.371094 33.96875 33.59375 33.925781 33.828125 33.925781 C 34.058594 33.925781 34.28125 33.96875 34.496094 34.058594 C 34.710938 34.148438 34.898438 34.273438 35.0625 34.441406 C 35.226562 34.605469 35.351562 34.792969 35.441406 35.007812 C 35.53125 35.222656 35.574219 35.449219 35.574219 35.679688 Z M 35.574219 35.679688 " fill-opacity="1" fill-rule="nonzero"/><path fill="#ffffff" d="M 35.757812 40.390625 C 35.757812 40.589844 35.722656 40.777344 35.648438 40.957031 C 35.570312 41.140625 35.464844 41.300781 35.328125 41.4375 C 35.191406 41.578125 35.03125 41.683594 34.851562 41.757812 C 34.667969 41.832031 34.480469 41.871094 34.285156 41.871094 C 34.089844 41.871094 33.902344 41.832031 33.722656 41.757812 C 33.542969 41.683594 33.382812 41.578125 33.246094 41.4375 C 33.105469 41.300781 33 41.140625 32.925781 40.957031 C 32.851562 40.777344 32.8125 40.589844 32.8125 40.390625 C 32.8125 40.195312 32.851562 40.007812 32.925781 39.828125 C 33 39.644531 33.105469 39.484375 33.246094 39.347656 C 33.382812 39.207031 33.542969 39.101562 33.722656 39.027344 C 33.902344 38.953125 34.089844 38.914062 34.285156 38.914062 C 34.480469 38.914062 34.667969 38.953125 34.851562 39.027344 C 35.03125 39.101562 35.191406 39.207031 35.328125 39.347656 C 35.464844 39.484375 35.570312 39.644531 35.648438 39.828125 C 35.722656 40.007812 35.757812 40.195312 35.757812 40.390625 Z M 35.757812 40.390625 " fill-opacity="1" fill-rule="nonzero"/><path fill="#ffffff" d="M 39.714844 40.945312 C 39.714844 41.144531 39.679688 41.332031 39.605469 41.511719 C 39.527344 41.695312 39.421875 41.851562 39.285156 41.992188 C 39.148438 42.128906 38.988281 42.238281 38.808594 42.3125 C 38.625 42.386719 38.4375 42.425781 38.242188 42.425781 C 38.046875 42.425781 37.859375 42.386719 37.679688 42.3125 C 37.5 42.238281 37.339844 42.128906 37.203125 41.992188 C 37.0625 41.851562 36.957031 41.695312 36.882812 41.511719 C 36.808594 41.332031 36.769531 41.144531 36.769531 40.945312 C 36.769531 40.75 36.808594 40.5625 36.882812 40.382812 C 36.957031 40.199219 37.0625 40.039062 37.203125 39.902344 C 37.339844 39.761719 37.5 39.65625 37.679688 39.582031 C 37.859375 39.507812 38.046875 39.46875 38.242188 39.46875 C 38.4375 39.46875 38.625 39.507812 38.808594 39.582031 C 38.988281 39.65625 39.148438 39.761719 39.285156 39.902344 C 39.421875 40.039062 39.527344 40.199219 39.605469 40.382812 C 39.679688 40.5625 39.714844 40.75 39.714844 40.945312 Z M 39.714844 40.945312 " fill-opacity="1" fill-rule="nonzero"/><path fill="#ffffff" d="M 39.070312 45.011719 C 39.070312 45.183594 39.039062 45.347656 38.972656 45.507812 C 38.910156 45.664062 38.816406 45.804688 38.695312 45.925781 C 38.574219 46.046875 38.433594 46.140625 38.277344 46.207031 C 38.117188 46.273438 37.953125 46.304688 37.785156 46.304688 C 37.613281 46.304688 37.449219 46.273438 37.289062 46.207031 C 37.132812 46.140625 36.992188 46.046875 36.871094 45.925781 C 36.75 45.804688 36.660156 45.664062 36.59375 45.507812 C 36.527344 45.347656 36.496094 45.183594 36.496094 45.011719 C 36.496094 44.839844 36.527344 44.675781 36.59375 44.515625 C 36.660156 44.359375 36.75 44.21875 36.871094 44.097656 C 36.992188 43.976562 37.132812 43.882812 37.289062 43.816406 C 37.449219 43.75 37.613281 43.71875 37.785156 43.71875 C 37.953125 43.71875 38.117188 43.75 38.277344 43.816406 C 38.433594 43.882812 38.574219 43.976562 38.695312 44.097656 C 38.816406 44.21875 38.910156 44.359375 38.972656 44.515625 C 39.039062 44.675781 39.070312 44.839844 39.070312 45.011719 Z M 39.070312 45.011719 " fill-opacity="1" fill-rule="nonzero"/><path fill="#ffffff" d="M 42.292969 46.210938 C 42.292969 46.382812 42.261719 46.550781 42.195312 46.707031 C 42.128906 46.867188 42.035156 47.003906 41.914062 47.128906 C 41.792969 47.25 41.65625 47.339844 41.496094 47.40625 C 41.339844 47.472656 41.175781 47.503906 41.003906 47.503906 C 40.832031 47.503906 40.667969 47.472656 40.511719 47.40625 C 40.351562 47.339844 40.214844 47.25 40.09375 47.128906 C 39.972656 47.003906 39.878906 46.867188 39.8125 46.707031 C 39.75 46.550781 39.714844 46.382812 39.714844 46.210938 C 39.714844 46.039062 39.75 45.875 39.8125 45.71875 C 39.878906 45.558594 39.972656 45.417969 40.09375 45.296875 C 40.214844 45.175781 40.351562 45.082031 40.511719 45.015625 C 40.667969 44.953125 40.832031 44.917969 41.003906 44.917969 C 41.175781 44.917969 41.339844 44.953125 41.496094 45.015625 C 41.65625 45.082031 41.792969 45.175781 41.914062 45.296875 C 42.035156 45.417969 42.128906 45.558594 42.195312 45.71875 C 42.261719 45.875 42.292969 46.039062 42.292969 46.210938 Z M 42.292969 46.210938 " fill-opacity="1" fill-rule="nonzero"/><path fill="#ffffff" d="M 35.113281 44.457031 C 35.113281 44.628906 35.082031 44.792969 35.015625 44.953125 C 34.953125 45.109375 34.859375 45.25 34.738281 45.371094 C 34.617188 45.492188 34.476562 45.585938 34.320312 45.652344 C 34.160156 45.71875 33.996094 45.75 33.828125 45.75 C 33.65625 45.75 33.492188 45.71875 33.332031 45.652344 C 33.175781 45.585938 33.035156 45.492188 32.914062 45.371094 C 32.792969 45.25 32.703125 45.109375 32.636719 44.953125 C 32.570312 44.792969 32.539062 44.628906 32.539062 44.457031 C 32.539062 44.285156 32.570312 44.121094 32.636719 43.960938 C 32.703125 43.804688 32.792969 43.664062 32.914062 43.542969 C 33.035156 43.421875 33.175781 43.328125 33.332031 43.261719 C 33.492188 43.195312 33.65625 43.164062 33.828125 43.164062 C 33.996094 43.164062 34.160156 43.195312 34.320312 43.261719 C 34.476562 43.328125 34.617188 43.421875 34.738281 43.542969 C 34.859375 43.664062 34.953125 43.804688 35.015625 43.960938 C 35.082031 44.121094 35.113281 44.285156 35.113281 44.457031 Z M 35.113281 44.457031 " fill-opacity="1" fill-rule="nonzero"/><path fill="#ffffff" d="M 33.734375 47.691406 C 33.734375 47.835938 33.707031 47.980469 33.648438 48.113281 C 33.59375 48.25 33.515625 48.371094 33.410156 48.472656 C 33.308594 48.578125 33.1875 48.660156 33.050781 48.714844 C 32.917969 48.769531 32.777344 48.800781 32.628906 48.800781 C 32.484375 48.800781 32.34375 48.769531 32.207031 48.714844 C 32.070312 48.660156 31.953125 48.578125 31.847656 48.472656 C 31.746094 48.371094 31.664062 48.25 31.609375 48.113281 C 31.554688 47.980469 31.527344 47.835938 31.527344 47.691406 C 31.527344 47.542969 31.554688 47.402344 31.609375 47.265625 C 31.664062 47.128906 31.746094 47.011719 31.847656 46.90625 C 31.953125 46.800781 32.070312 46.722656 32.207031 46.667969 C 32.34375 46.609375 32.484375 46.582031 32.628906 46.582031 C 32.777344 46.582031 32.917969 46.609375 33.050781 46.667969 C 33.1875 46.722656 33.308594 46.800781 33.410156 46.90625 C 33.515625 47.011719 33.59375 47.128906 33.648438 47.265625 C 33.707031 47.402344 33.734375 47.542969 33.734375 47.691406 Z M 33.734375 47.691406 " fill-opacity="1" fill-rule="nonzero"/><path fill="#ffffff" d="M 37.691406 48.246094 C 37.691406 48.390625 37.664062 48.535156 37.605469 48.667969 C 37.550781 48.804688 37.472656 48.925781 37.367188 49.027344 C 37.265625 49.132812 37.144531 49.210938 37.007812 49.269531 C 36.875 49.324219 36.734375 49.351562 36.585938 49.351562 C 36.441406 49.351562 36.300781 49.324219 36.164062 49.269531 C 36.027344 49.210938 35.910156 49.132812 35.804688 49.027344 C 35.703125 48.925781 35.621094 48.804688 35.566406 48.667969 C 35.511719 48.535156 35.484375 48.390625 35.484375 48.246094 C 35.484375 48.097656 35.511719 47.957031 35.566406 47.820312 C 35.621094 47.683594 35.703125 47.566406 35.804688 47.460938 C 35.910156 47.355469 36.027344 47.277344 36.164062 47.21875 C 36.300781 47.164062 36.441406 47.136719 36.585938 47.136719 C 36.734375 47.136719 36.875 47.164062 37.007812 47.21875 C 37.144531 47.277344 37.265625 47.355469 37.367188 47.460938 C 37.472656 47.566406 37.550781 47.683594 37.605469 47.820312 C 37.664062 47.957031 37.691406 48.097656 37.691406 48.246094 Z M 37.691406 48.246094 " fill-opacity="1" fill-rule="nonzero"/><path fill="#ffffff" d="M 40.914062 49.445312 C 40.914062 49.59375 40.882812 49.734375 40.828125 49.871094 C 40.773438 50.007812 40.691406 50.125 40.589844 50.230469 C 40.484375 50.332031 40.367188 50.414062 40.230469 50.46875 C 40.09375 50.527344 39.953125 50.554688 39.808594 50.554688 C 39.660156 50.554688 39.519531 50.527344 39.386719 50.46875 C 39.25 50.414062 39.128906 50.332031 39.027344 50.230469 C 38.921875 50.125 38.84375 50.007812 38.789062 49.871094 C 38.730469 49.734375 38.703125 49.59375 38.703125 49.445312 C 38.703125 49.296875 38.730469 49.15625 38.789062 49.023438 C 38.84375 48.886719 38.921875 48.765625 39.027344 48.660156 C 39.128906 48.558594 39.25 48.476562 39.386719 48.421875 C 39.519531 48.367188 39.660156 48.335938 39.808594 48.335938 C 39.953125 48.335938 40.09375 48.367188 40.230469 48.421875 C 40.367188 48.476562 40.484375 48.558594 40.589844 48.660156 C 40.691406 48.765625 40.773438 48.886719 40.828125 49.023438 C 40.882812 49.15625 40.914062 49.296875 40.914062 49.445312 Z M 40.914062 49.445312 " fill-opacity="1" fill-rule="nonzero"/><path fill="#ffffff" d="M 39.164062 51.941406 C 39.164062 52.195312 39.074219 52.414062 38.894531 52.59375 C 38.714844 52.773438 38.496094 52.863281 38.242188 52.863281 C 37.988281 52.863281 37.773438 52.773438 37.59375 52.59375 C 37.414062 52.414062 37.324219 52.195312 37.324219 51.941406 C 37.324219 51.683594 37.414062 51.46875 37.59375 51.285156 C 37.773438 51.105469 37.988281 51.015625 38.242188 51.015625 C 38.496094 51.015625 38.714844 51.105469 38.894531 51.285156 C 39.074219 51.46875 39.164062 51.683594 39.164062 51.941406 Z M 39.164062 51.941406 " fill-opacity="1" fill-rule="nonzero"/><path fill="#ffffff" d="M 35.941406 50.738281 C 35.941406 50.996094 35.851562 51.210938 35.671875 51.390625 C 35.492188 51.574219 35.277344 51.664062 35.023438 51.664062 C 34.769531 51.664062 34.550781 51.574219 34.371094 51.390625 C 34.191406 51.210938 34.101562 50.996094 34.101562 50.738281 C 34.101562 50.484375 34.191406 50.265625 34.371094 50.085938 C 34.550781 49.90625 34.769531 49.816406 35.023438 49.816406 C 35.277344 49.816406 35.492188 49.90625 35.671875 50.085938 C 35.851562 50.265625 35.941406 50.484375 35.941406 50.738281 Z M 35.941406 50.738281 " fill-opacity="1" fill-rule="nonzero"/><path fill="#ffffff" d="M 31.984375 50.183594 C 31.984375 50.441406 31.894531 50.65625 31.714844 50.839844 C 31.535156 51.019531 31.320312 51.109375 31.066406 51.109375 C 30.8125 51.109375 30.59375 51.019531 30.414062 50.839844 C 30.234375 50.65625 30.144531 50.441406 30.144531 50.183594 C 30.144531 49.929688 30.234375 49.710938 30.414062 49.53125 C 30.59375 49.351562 30.8125 49.261719 31.066406 49.261719 C 31.320312 49.261719 31.535156 49.351562 31.714844 49.53125 C 31.894531 49.710938 31.984375 49.929688 31.984375 50.183594 Z M 31.984375 50.183594 " fill-opacity="1" fill-rule="nonzero"/><path fill="#ffffff" d="M 34.101562 52.402344 C 34.101562 52.632812 34.023438 52.828125 33.859375 52.988281 C 33.699219 53.152344 33.503906 53.234375 33.273438 53.234375 C 33.046875 53.234375 32.851562 53.152344 32.6875 52.988281 C 32.527344 52.828125 32.445312 52.632812 32.445312 52.402344 C 32.445312 52.171875 32.527344 51.976562 32.6875 51.8125 C 32.851562 51.652344 33.046875 51.570312 33.273438 51.570312 C 33.503906 51.570312 33.699219 51.652344 33.859375 51.8125 C 34.023438 51.976562 34.101562 52.171875 34.101562 52.402344 Z M 34.101562 52.402344 " fill-opacity="1" fill-rule="nonzero"/><path fill="#ffffff" d="M 37.230469 53.695312 C 37.230469 53.925781 37.152344 54.121094 36.988281 54.285156 C 36.828125 54.445312 36.632812 54.527344 36.402344 54.527344 C 36.175781 54.527344 35.980469 54.445312 35.816406 54.285156 C 35.65625 54.121094 35.574219 53.925781 35.574219 53.695312 C 35.574219 53.464844 35.65625 53.269531 35.816406 53.109375 C 35.980469 52.945312 36.175781 52.863281 36.402344 52.863281 C 36.632812 52.863281 36.828125 52.945312 36.988281 53.109375 C 37.152344 53.269531 37.230469 53.464844 37.230469 53.695312 Z M 37.230469 53.695312 " fill-opacity="1" fill-rule="nonzero"/><path fill="#ffffff" d="M 35.296875 54.710938 C 35.296875 54.890625 35.234375 55.042969 35.109375 55.167969 C 34.984375 55.296875 34.832031 55.359375 34.65625 55.359375 C 34.476562 55.359375 34.324219 55.296875 34.199219 55.167969 C 34.074219 55.042969 34.011719 54.890625 34.011719 54.710938 C 34.011719 54.53125 34.074219 54.378906 34.199219 54.253906 C 34.324219 54.128906 34.476562 54.066406 34.65625 54.066406 C 34.832031 54.066406 34.984375 54.128906 35.109375 54.253906 C 35.234375 54.378906 35.296875 54.53125 35.296875 54.710938 Z M 35.296875 54.710938 " fill-opacity="1" fill-rule="nonzero"/><path fill="#ffffff" d="M 33.550781 55.265625 C 33.550781 55.445312 33.488281 55.597656 33.363281 55.722656 C 33.234375 55.847656 33.085938 55.914062 32.90625 55.914062 C 32.726562 55.914062 32.578125 55.847656 32.449219 55.722656 C 32.324219 55.597656 32.261719 55.445312 32.261719 55.265625 C 32.261719 55.085938 32.324219 54.933594 32.449219 54.808594 C 32.578125 54.683594 32.726562 54.621094 32.90625 54.621094 C 33.085938 54.621094 33.234375 54.683594 33.363281 54.808594 C 33.488281 54.933594 33.550781 55.085938 33.550781 55.265625 Z M 33.550781 55.265625 " fill-opacity="1" fill-rule="nonzero"/><path fill="#ffffff" d="M 32.171875 53.511719 C 32.171875 53.714844 32.097656 53.890625 31.953125 54.035156 C 31.8125 54.175781 31.636719 54.25 31.433594 54.25 C 31.230469 54.25 31.058594 54.175781 30.914062 54.035156 C 30.769531 53.890625 30.699219 53.714844 30.699219 53.511719 C 30.699219 53.304688 30.769531 53.132812 30.914062 52.988281 C 31.058594 52.84375 31.230469 52.773438 31.433594 52.773438 C 31.636719 52.773438 31.8125 52.84375 31.953125 52.988281 C 32.097656 53.132812 32.171875 53.304688 32.171875 53.511719 Z M 32.171875 53.511719 " fill-opacity="1" fill-rule="nonzero"/><path fill="#ffffff" d="M 30.054688 51.847656 C 30.054688 52.078125 29.972656 52.273438 29.8125 52.4375 C 29.648438 52.597656 29.453125 52.679688 29.226562 52.679688 C 28.996094 52.679688 28.800781 52.597656 28.640625 52.4375 C 28.476562 52.273438 28.398438 52.078125 28.398438 51.847656 C 28.398438 51.617188 28.476562 51.421875 28.640625 51.261719 C 28.800781 51.097656 28.996094 51.015625 29.226562 51.015625 C 29.453125 51.015625 29.648438 51.097656 29.8125 51.261719 C 29.972656 51.421875 30.054688 51.617188 30.054688 51.847656 Z M 30.054688 51.847656 " fill-opacity="1" fill-rule="nonzero"/><path fill="#ffffff" d="M 37.507812 60.902344 C 37.507812 61.132812 37.464844 61.359375 37.375 61.574219 C 37.285156 61.789062 37.160156 61.976562 36.996094 62.140625 C 36.832031 62.308594 36.640625 62.433594 36.429688 62.523438 C 36.214844 62.613281 35.992188 62.65625 35.757812 62.65625 C 35.527344 62.65625 35.304688 62.613281 35.089844 62.523438 C 34.875 62.433594 34.6875 62.308594 34.523438 62.140625 C 34.359375 61.976562 34.230469 61.789062 34.144531 61.574219 C 34.054688 61.359375 34.011719 61.132812 34.011719 60.902344 C 34.011719 60.667969 34.054688 60.445312 34.144531 60.230469 C 34.230469 60.015625 34.359375 59.824219 34.523438 59.660156 C 34.6875 59.496094 34.875 59.367188 35.089844 59.28125 C 35.304688 59.191406 35.527344 59.144531 35.757812 59.144531 C 35.992188 59.144531 36.214844 59.191406 36.429688 59.28125 C 36.640625 59.367188 36.832031 59.496094 36.996094 59.660156 C 37.160156 59.824219 37.285156 60.015625 37.375 60.230469 C 37.464844 60.445312 37.507812 60.667969 37.507812 60.902344 Z M 37.507812 60.902344 " fill-opacity="1" fill-rule="nonzero"/><path fill="#ffffff" d="M 32.90625 59.054688 C 32.90625 59.25 32.867188 59.4375 32.792969 59.621094 C 32.71875 59.800781 32.613281 59.960938 32.476562 60.097656 C 32.335938 60.238281 32.175781 60.34375 31.996094 60.417969 C 31.816406 60.492188 31.628906 60.53125 31.433594 60.53125 C 31.238281 60.53125 31.050781 60.492188 30.871094 60.417969 C 30.691406 60.34375 30.53125 60.238281 30.394531 60.097656 C 30.253906 59.960938 30.148438 59.800781 30.074219 59.621094 C 30 59.4375 29.960938 59.25 29.960938 59.054688 C 29.960938 58.859375 30 58.667969 30.074219 58.488281 C 30.148438 58.308594 30.253906 58.148438 30.394531 58.007812 C 30.53125 57.871094 30.691406 57.761719 30.871094 57.6875 C 31.050781 57.613281 31.238281 57.574219 31.433594 57.574219 C 31.628906 57.574219 31.816406 57.613281 31.996094 57.6875 C 32.175781 57.761719 32.335938 57.871094 32.476562 58.007812 C 32.613281 58.148438 32.71875 58.308594 32.792969 58.488281 C 32.867188 58.667969 32.90625 58.859375 32.90625 59.054688 Z M 32.90625 59.054688 " fill-opacity="1" fill-rule="nonzero"/><path fill="#ffffff" d="M 30.421875 62.195312 C 30.421875 62.390625 30.382812 62.578125 30.308594 62.761719 C 30.234375 62.941406 30.128906 63.101562 29.988281 63.238281 C 29.851562 63.378906 29.691406 63.484375 29.511719 63.558594 C 29.332031 63.636719 29.144531 63.671875 28.949219 63.671875 C 28.753906 63.671875 28.566406 63.636719 28.386719 63.558594 C 28.207031 63.484375 28.046875 63.378906 27.90625 63.238281 C 27.769531 63.101562 27.664062 62.941406 27.589844 62.761719 C 27.515625 62.578125 27.476562 62.390625 27.476562 62.195312 C 27.476562 62 27.515625 61.808594 27.589844 61.628906 C 27.664062 61.449219 27.769531 61.289062 27.90625 61.148438 C 28.046875 61.011719 28.207031 60.902344 28.386719 60.828125 C 28.566406 60.753906 28.753906 60.714844 28.949219 60.714844 C 29.144531 60.714844 29.332031 60.753906 29.511719 60.828125 C 29.691406 60.902344 29.851562 61.011719 29.988281 61.148438 C 30.128906 61.289062 30.234375 61.449219 30.308594 61.628906 C 30.382812 61.808594 30.421875 62 30.421875 62.195312 Z M 30.421875 62.195312 " fill-opacity="1" fill-rule="nonzero"/><path fill="#ffffff" d="M 29.5 56.558594 C 29.5 56.730469 29.46875 56.894531 29.402344 57.054688 C 29.335938 57.210938 29.246094 57.351562 29.125 57.472656 C 29.003906 57.59375 28.863281 57.6875 28.707031 57.753906 C 28.546875 57.820312 28.382812 57.851562 28.210938 57.851562 C 28.042969 57.851562 27.878906 57.820312 27.71875 57.753906 C 27.5625 57.6875 27.421875 57.59375 27.300781 57.472656 C 27.179688 57.351562 27.089844 57.210938 27.023438 57.054688 C 26.957031 56.894531 26.925781 56.730469 26.925781 56.558594 C 26.925781 56.386719 26.957031 56.222656 27.023438 56.0625 C 27.089844 55.90625 27.179688 55.765625 27.300781 55.644531 C 27.421875 55.523438 27.5625 55.429688 27.71875 55.363281 C 27.878906 55.296875 28.042969 55.265625 28.210938 55.265625 C 28.382812 55.265625 28.546875 55.296875 28.707031 55.363281 C 28.863281 55.429688 29.003906 55.523438 29.125 55.644531 C 29.246094 55.765625 29.335938 55.90625 29.402344 56.0625 C 29.46875 56.222656 29.5 56.386719 29.5 56.558594 Z M 29.5 56.558594 " fill-opacity="1" fill-rule="nonzero"/><path fill="#ffffff" d="M 27.015625 59.792969 C 27.015625 59.964844 26.984375 60.128906 26.917969 60.289062 C 26.851562 60.445312 26.761719 60.585938 26.640625 60.707031 C 26.519531 60.828125 26.378906 60.921875 26.222656 60.988281 C 26.0625 61.054688 25.898438 61.085938 25.726562 61.085938 C 25.558594 61.085938 25.394531 61.054688 25.234375 60.988281 C 25.078125 60.921875 24.9375 60.828125 24.816406 60.707031 C 24.695312 60.585938 24.601562 60.445312 24.539062 60.289062 C 24.472656 60.128906 24.441406 59.964844 24.441406 59.792969 C 24.441406 59.621094 24.472656 59.457031 24.539062 59.296875 C 24.601562 59.140625 24.695312 59 24.816406 58.878906 C 24.9375 58.757812 25.078125 58.664062 25.234375 58.597656 C 25.394531 58.53125 25.558594 58.5 25.726562 58.5 C 25.898438 58.5 26.0625 58.53125 26.222656 58.597656 C 26.378906 58.664062 26.519531 58.757812 26.640625 58.878906 C 26.761719 59 26.851562 59.140625 26.917969 59.296875 C 26.984375 59.457031 27.015625 59.621094 27.015625 59.792969 Z M 27.015625 59.792969 " fill-opacity="1" fill-rule="nonzero"/><path fill="#ffffff" d="M 24.441406 61.917969 C 24.441406 62.089844 24.40625 62.253906 24.34375 62.414062 C 24.277344 62.570312 24.183594 62.710938 24.0625 62.832031 C 23.941406 62.953125 23.800781 63.046875 23.644531 63.113281 C 23.488281 63.179688 23.324219 63.210938 23.152344 63.210938 C 22.980469 63.210938 22.816406 63.179688 22.660156 63.113281 C 22.5 63.046875 22.363281 62.953125 22.242188 62.832031 C 22.121094 62.710938 22.027344 62.570312 21.960938 62.414062 C 21.894531 62.253906 21.863281 62.089844 21.863281 61.917969 C 21.863281 61.746094 21.894531 61.582031 21.960938 61.421875 C 22.027344 61.265625 22.121094 61.125 22.242188 61.003906 C 22.363281 60.882812 22.5 60.789062 22.660156 60.722656 C 22.816406 60.65625 22.980469 60.625 23.152344 60.625 C 23.324219 60.625 23.488281 60.65625 23.644531 60.722656 C 23.800781 60.789062 23.941406 60.882812 24.0625 61.003906 C 24.183594 61.125 24.277344 61.265625 24.34375 61.421875 C 24.40625 61.582031 24.441406 61.746094 24.441406 61.917969 Z M 24.441406 61.917969 " fill-opacity="1" fill-rule="nonzero"/><path fill="#ffffff" d="M 21.957031 59.238281 C 21.957031 59.386719 21.925781 59.527344 21.871094 59.664062 C 21.816406 59.796875 21.734375 59.917969 21.632812 60.023438 C 21.527344 60.125 21.410156 60.207031 21.273438 60.261719 C 21.136719 60.320312 20.996094 60.347656 20.851562 60.347656 C 20.703125 60.347656 20.5625 60.320312 20.429688 60.261719 C 20.292969 60.207031 20.171875 60.125 20.070312 60.023438 C 19.964844 59.917969 19.886719 59.796875 19.832031 59.664062 C 19.773438 59.527344 19.746094 59.386719 19.746094 59.238281 C 19.746094 59.089844 19.773438 58.949219 19.832031 58.8125 C 19.886719 58.679688 19.964844 58.558594 20.070312 58.453125 C 20.171875 58.351562 20.292969 58.269531 20.429688 58.214844 C 20.5625 58.15625 20.703125 58.128906 20.851562 58.128906 C 20.996094 58.128906 21.136719 58.15625 21.273438 58.214844 C 21.410156 58.269531 21.527344 58.351562 21.632812 58.453125 C 21.734375 58.558594 21.816406 58.679688 21.871094 58.8125 C 21.925781 58.949219 21.957031 59.089844 21.957031 59.238281 Z M 21.957031 59.238281 " fill-opacity="1" fill-rule="nonzero"/><path fill="#ffffff" d="M 24.625 57.113281 C 24.625 57.261719 24.597656 57.402344 24.539062 57.539062 C 24.484375 57.671875 24.402344 57.792969 24.300781 57.898438 C 24.195312 58 24.078125 58.082031 23.941406 58.136719 C 23.808594 58.195312 23.667969 58.222656 23.519531 58.222656 C 23.375 58.222656 23.230469 58.195312 23.097656 58.136719 C 22.960938 58.082031 22.84375 58 22.738281 57.898438 C 22.636719 57.792969 22.554688 57.671875 22.5 57.539062 C 22.441406 57.402344 22.414062 57.261719 22.414062 57.113281 C 22.414062 56.964844 22.441406 56.824219 22.5 56.6875 C 22.554688 56.554688 22.636719 56.433594 22.738281 56.328125 C 22.84375 56.226562 22.960938 56.144531 23.097656 56.089844 C 23.230469 56.03125 23.375 56.003906 23.519531 56.003906 C 23.667969 56.003906 23.808594 56.03125 23.941406 56.089844 C 24.078125 56.144531 24.195312 56.226562 24.300781 56.328125 C 24.402344 56.433594 24.484375 56.554688 24.539062 56.6875 C 24.597656 56.824219 24.625 56.964844 24.625 57.113281 Z M 24.625 57.113281 " fill-opacity="1" fill-rule="nonzero"/><path fill="#ffffff" d="M 27.109375 53.972656 C 27.109375 54.121094 27.082031 54.261719 27.023438 54.398438 C 26.96875 54.53125 26.890625 54.652344 26.785156 54.757812 C 26.679688 54.859375 26.5625 54.941406 26.425781 54.996094 C 26.292969 55.054688 26.152344 55.082031 26.003906 55.082031 C 25.859375 55.082031 25.71875 55.054688 25.582031 54.996094 C 25.445312 54.941406 25.328125 54.859375 25.222656 54.757812 C 25.121094 54.652344 25.039062 54.53125 24.984375 54.398438 C 24.929688 54.261719 24.898438 54.121094 24.898438 53.972656 C 24.898438 53.824219 24.929688 53.683594 24.984375 53.546875 C 25.039062 53.414062 25.121094 53.292969 25.222656 53.1875 C 25.328125 53.085938 25.445312 53.003906 25.582031 52.949219 C 25.71875 52.890625 25.859375 52.863281 26.003906 52.863281 C 26.152344 52.863281 26.292969 52.890625 26.425781 52.949219 C 26.5625 53.003906 26.679688 53.085938 26.785156 53.1875 C 26.890625 53.292969 26.96875 53.414062 27.023438 53.546875 C 27.082031 53.683594 27.109375 53.824219 27.109375 53.972656 Z M 27.109375 53.972656 " fill-opacity="1" fill-rule="nonzero"/><path fill="#ffffff" d="M 23.152344 54.527344 C 23.152344 54.78125 23.0625 55 22.882812 55.179688 C 22.703125 55.359375 22.484375 55.449219 22.230469 55.449219 C 21.976562 55.449219 21.761719 55.359375 21.582031 55.179688 C 21.402344 55 21.3125 54.78125 21.3125 54.527344 C 21.3125 54.273438 21.402344 54.054688 21.582031 53.875 C 21.761719 53.691406 21.976562 53.601562 22.230469 53.601562 C 22.484375 53.601562 22.703125 53.691406 22.882812 53.875 C 23.0625 54.054688 23.152344 54.273438 23.152344 54.527344 Z M 23.152344 54.527344 " fill-opacity="1" fill-rule="nonzero"/><path fill="#ffffff" d="M 20.484375 56.652344 C 20.484375 56.90625 20.394531 57.125 20.214844 57.304688 C 20.035156 57.484375 19.816406 57.574219 19.5625 57.574219 C 19.308594 57.574219 19.089844 57.484375 18.910156 57.304688 C 18.730469 57.125 18.640625 56.90625 18.640625 56.652344 C 18.640625 56.398438 18.730469 56.179688 18.910156 56 C 19.089844 55.816406 19.308594 55.726562 19.5625 55.726562 C 19.816406 55.726562 20.035156 55.816406 20.214844 56 C 20.394531 56.179688 20.484375 56.398438 20.484375 56.652344 Z M 20.484375 56.652344 " fill-opacity="1" fill-rule="nonzero"/><path fill="#ffffff" d="M 19.839844 54.25 C 19.839844 54.480469 19.757812 54.675781 19.597656 54.835938 C 19.433594 55 19.238281 55.082031 19.011719 55.082031 C 18.78125 55.082031 18.585938 55 18.425781 54.835938 C 18.261719 54.675781 18.183594 54.480469 18.183594 54.25 C 18.183594 54.019531 18.261719 53.824219 18.425781 53.660156 C 18.585938 53.5 18.78125 53.417969 19.011719 53.417969 C 19.238281 53.417969 19.433594 53.5 19.597656 53.660156 C 19.757812 53.824219 19.839844 54.019531 19.839844 54.25 Z M 19.839844 54.25 " fill-opacity="1" fill-rule="nonzero"/><path fill="#ffffff" d="M 19.65625 52.125 C 19.65625 52.328125 19.582031 52.503906 19.4375 52.648438 C 19.296875 52.792969 19.121094 52.863281 18.917969 52.863281 C 18.714844 52.863281 18.542969 52.792969 18.398438 52.648438 C 18.253906 52.503906 18.183594 52.328125 18.183594 52.125 C 18.183594 51.921875 18.253906 51.746094 18.398438 51.601562 C 18.542969 51.457031 18.714844 51.386719 18.917969 51.386719 C 19.121094 51.386719 19.296875 51.457031 19.4375 51.601562 C 19.582031 51.746094 19.65625 51.921875 19.65625 52.125 Z M 19.65625 52.125 " fill-opacity="1" fill-rule="nonzero"/><path fill="#ffffff" d="M 19.929688 50.371094 C 19.929688 50.546875 19.867188 50.699219 19.742188 50.828125 C 19.617188 50.953125 19.464844 51.015625 19.285156 51.015625 C 19.109375 51.015625 18.957031 50.953125 18.832031 50.828125 C 18.707031 50.699219 18.640625 50.546875 18.640625 50.371094 C 18.640625 50.191406 18.707031 50.039062 18.832031 49.914062 C 18.957031 49.785156 19.109375 49.722656 19.285156 49.722656 C 19.464844 49.722656 19.617188 49.785156 19.742188 49.914062 C 19.867188 50.039062 19.929688 50.191406 19.929688 50.371094 Z M 19.929688 50.371094 " fill-opacity="1" fill-rule="nonzero"/><path fill="#ffffff" d="M 22.324219 50 C 22.324219 50.203125 22.25 50.378906 22.109375 50.523438 C 21.964844 50.667969 21.789062 50.738281 21.585938 50.738281 C 21.382812 50.738281 21.210938 50.667969 21.066406 50.523438 C 20.921875 50.378906 20.851562 50.203125 20.851562 50 C 20.851562 49.796875 20.921875 49.621094 21.066406 49.476562 C 21.210938 49.332031 21.382812 49.261719 21.585938 49.261719 C 21.789062 49.261719 21.964844 49.332031 22.109375 49.476562 C 22.25 49.621094 22.324219 49.796875 22.324219 50 Z M 22.324219 50 " fill-opacity="1" fill-rule="nonzero"/><path fill="#ffffff" d="M 24.898438 48.890625 C 24.898438 49.121094 24.820312 49.316406 24.65625 49.480469 C 24.496094 49.640625 24.300781 49.722656 24.070312 49.722656 C 23.84375 49.722656 23.648438 49.640625 23.484375 49.480469 C 23.324219 49.316406 23.242188 49.121094 23.242188 48.890625 C 23.242188 48.660156 23.324219 48.464844 23.484375 48.304688 C 23.648438 48.140625 23.84375 48.058594 24.070312 48.058594 C 24.300781 48.058594 24.496094 48.140625 24.65625 48.304688 C 24.820312 48.464844 24.898438 48.660156 24.898438 48.890625 Z M 24.898438 48.890625 " fill-opacity="1" fill-rule="nonzero"/><path fill="#ffffff" d="M 25.636719 51.292969 C 25.636719 51.546875 25.546875 51.765625 25.367188 51.945312 C 25.1875 52.128906 24.96875 52.21875 24.714844 52.21875 C 24.460938 52.21875 24.246094 52.128906 24.066406 51.945312 C 23.886719 51.765625 23.796875 51.546875 23.796875 51.292969 C 23.796875 51.039062 23.886719 50.820312 24.066406 50.640625 C 24.246094 50.460938 24.460938 50.371094 24.714844 50.371094 C 24.96875 50.371094 25.1875 50.460938 25.367188 50.640625 C 25.546875 50.820312 25.636719 51.039062 25.636719 51.292969 Z M 25.636719 51.292969 " fill-opacity="1" fill-rule="nonzero"/><path fill="#ffffff" d="M 22.414062 52.125 C 22.414062 52.355469 22.335938 52.550781 22.171875 52.710938 C 22.011719 52.875 21.816406 52.957031 21.585938 52.957031 C 21.359375 52.957031 21.164062 52.875 21 52.710938 C 20.839844 52.550781 20.757812 52.355469 20.757812 52.125 C 20.757812 51.894531 20.839844 51.699219 21 51.535156 C 21.164062 51.375 21.359375 51.292969 21.585938 51.292969 C 21.816406 51.292969 22.011719 51.375 22.171875 51.535156 C 22.335938 51.699219 22.414062 51.894531 22.414062 52.125 Z M 22.414062 52.125 " fill-opacity="1" fill-rule="nonzero"/><path fill="#ffffff" d="M 14.777344 50.09375 C 14.777344 50.324219 14.734375 50.550781 14.644531 50.765625 C 14.554688 50.980469 14.429688 51.167969 14.265625 51.332031 C 14.101562 51.5 13.914062 51.625 13.699219 51.714844 C 13.484375 51.804688 13.261719 51.847656 13.027344 51.847656 C 12.796875 51.847656 12.574219 51.804688 12.359375 51.714844 C 12.144531 51.625 11.957031 51.5 11.792969 51.332031 C 11.628906 51.167969 11.503906 50.980469 11.414062 50.765625 C 11.324219 50.550781 11.28125 50.324219 11.28125 50.09375 C 11.28125 49.859375 11.324219 49.636719 11.414062 49.421875 C 11.503906 49.207031 11.628906 49.015625 11.792969 48.851562 C 11.957031 48.6875 12.144531 48.558594 12.359375 48.472656 C 12.574219 48.382812 12.796875 48.335938 13.027344 48.335938 C 13.261719 48.335938 13.484375 48.382812 13.699219 48.472656 C 13.914062 48.558594 14.101562 48.6875 14.265625 48.851562 C 14.429688 49.015625 14.554688 49.207031 14.644531 49.421875 C 14.734375 49.636719 14.777344 49.859375 14.777344 50.09375 Z M 14.777344 50.09375 " fill-opacity="1" fill-rule="nonzero"/><path fill="#ffffff" d="M 18.457031 47.230469 C 18.457031 47.4375 18.417969 47.636719 18.339844 47.828125 C 18.261719 48.023438 18.148438 48.191406 18 48.339844 C 17.851562 48.488281 17.683594 48.601562 17.492188 48.679688 C 17.300781 48.757812 17.101562 48.800781 16.894531 48.800781 C 16.6875 48.800781 16.488281 48.757812 16.296875 48.679688 C 16.105469 48.601562 15.933594 48.488281 15.789062 48.339844 C 15.640625 48.191406 15.527344 48.023438 15.449219 47.828125 C 15.371094 47.636719 15.328125 47.4375 15.328125 47.230469 C 15.328125 47.019531 15.371094 46.820312 15.449219 46.628906 C 15.527344 46.433594 15.640625 46.265625 15.789062 46.117188 C 15.933594 45.972656 16.105469 45.855469 16.296875 45.777344 C 16.488281 45.699219 16.6875 45.65625 16.894531 45.65625 C 17.101562 45.65625 17.300781 45.699219 17.492188 45.777344 C 17.683594 45.855469 17.851562 45.972656 18 46.117188 C 18.148438 46.265625 18.261719 46.433594 18.339844 46.628906 C 18.417969 46.820312 18.457031 47.019531 18.457031 47.230469 Z M 18.457031 47.230469 " fill-opacity="1" fill-rule="nonzero"/><path fill="#ffffff" d="M 16.800781 43.535156 C 16.800781 43.730469 16.765625 43.917969 16.691406 44.097656 C 16.613281 44.28125 16.507812 44.441406 16.371094 44.578125 C 16.234375 44.71875 16.074219 44.824219 15.894531 44.898438 C 15.710938 44.972656 15.523438 45.011719 15.328125 45.011719 C 15.132812 45.011719 14.945312 44.972656 14.765625 44.898438 C 14.585938 44.824219 14.425781 44.71875 14.289062 44.578125 C 14.148438 44.441406 14.042969 44.28125 13.96875 44.097656 C 13.894531 43.917969 13.855469 43.730469 13.855469 43.535156 C 13.855469 43.335938 13.894531 43.148438 13.96875 42.96875 C 14.042969 42.785156 14.148438 42.625 14.289062 42.488281 C 14.425781 42.347656 14.585938 42.242188 14.765625 42.167969 C 14.945312 42.09375 15.132812 42.054688 15.328125 42.054688 C 15.523438 42.054688 15.710938 42.09375 15.894531 42.167969 C 16.074219 42.242188 16.234375 42.347656 16.371094 42.488281 C 16.507812 42.625 16.613281 42.785156 16.691406 42.96875 C 16.765625 43.148438 16.800781 43.335938 16.800781 43.535156 Z M 16.800781 43.535156 " fill-opacity="1" fill-rule="nonzero"/><path fill="#ffffff" d="M 20.296875 41.960938 C 20.296875 42.132812 20.265625 42.300781 20.199219 42.457031 C 20.136719 42.617188 20.042969 42.757812 19.921875 42.878906 C 19.800781 43 19.660156 43.09375 19.503906 43.15625 C 19.34375 43.222656 19.179688 43.257812 19.011719 43.257812 C 18.839844 43.257812 18.675781 43.222656 18.515625 43.15625 C 18.359375 43.09375 18.21875 43 18.097656 42.878906 C 17.980469 42.757812 17.886719 42.617188 17.820312 42.457031 C 17.753906 42.300781 17.722656 42.132812 17.722656 41.960938 C 17.722656 41.792969 17.753906 41.625 17.820312 41.46875 C 17.886719 41.308594 17.980469 41.167969 18.097656 41.046875 C 18.21875 40.925781 18.359375 40.832031 18.515625 40.769531 C 18.675781 40.703125 18.839844 40.667969 19.011719 40.667969 C 19.179688 40.667969 19.34375 40.703125 19.503906 40.769531 C 19.660156 40.832031 19.800781 40.925781 19.921875 41.046875 C 20.042969 41.167969 20.136719 41.308594 20.199219 41.46875 C 20.265625 41.625 20.296875 41.792969 20.296875 41.960938 Z M 20.296875 41.960938 " fill-opacity="1" fill-rule="nonzero"/><path fill="#ffffff" d="M 21.863281 45.65625 C 21.863281 45.828125 21.832031 45.996094 21.765625 46.152344 C 21.699219 46.3125 21.605469 46.453125 21.484375 46.574219 C 21.363281 46.695312 21.226562 46.789062 21.066406 46.851562 C 20.910156 46.917969 20.746094 46.953125 20.574219 46.953125 C 20.402344 46.953125 20.238281 46.917969 20.082031 46.851562 C 19.925781 46.789062 19.785156 46.695312 19.664062 46.574219 C 19.542969 46.453125 19.449219 46.3125 19.382812 46.152344 C 19.320312 45.996094 19.285156 45.828125 19.285156 45.65625 C 19.285156 45.488281 19.320312 45.320312 19.382812 45.164062 C 19.449219 45.003906 19.542969 44.863281 19.664062 44.742188 C 19.785156 44.621094 19.925781 44.527344 20.082031 44.464844 C 20.238281 44.398438 20.402344 44.363281 20.574219 44.363281 C 20.746094 44.363281 20.910156 44.398438 21.066406 44.464844 C 21.226562 44.527344 21.363281 44.621094 21.484375 44.742188 C 21.605469 44.863281 21.699219 45.003906 21.765625 45.164062 C 21.832031 45.320312 21.863281 45.488281 21.863281 45.65625 Z M 21.863281 45.65625 " fill-opacity="1" fill-rule="nonzero"/><path fill="#ffffff" d="M 25.085938 45.105469 C 25.085938 45.25 25.054688 45.390625 25 45.527344 C 24.945312 45.664062 24.863281 45.785156 24.761719 45.886719 C 24.65625 45.992188 24.539062 46.070312 24.402344 46.128906 C 24.265625 46.183594 24.125 46.210938 23.980469 46.210938 C 23.832031 46.210938 23.691406 46.183594 23.558594 46.128906 C 23.421875 46.070312 23.300781 45.992188 23.199219 45.886719 C 23.09375 45.785156 23.015625 45.664062 22.960938 45.527344 C 22.902344 45.390625 22.875 45.25 22.875 45.105469 C 22.875 44.957031 22.902344 44.816406 22.960938 44.679688 C 23.015625 44.542969 23.09375 44.425781 23.199219 44.320312 C 23.300781 44.214844 23.421875 44.136719 23.558594 44.078125 C 23.691406 44.023438 23.832031 43.996094 23.980469 43.996094 C 24.125 43.996094 24.265625 44.023438 24.402344 44.078125 C 24.539062 44.136719 24.65625 44.214844 24.761719 44.320312 C 24.863281 44.425781 24.945312 44.542969 25 44.679688 C 25.054688 44.816406 25.085938 44.957031 25.085938 45.105469 Z M 25.085938 45.105469 " fill-opacity="1" fill-rule="nonzero"/><path fill="#ffffff" d="M 27.753906 45.195312 C 27.753906 45.453125 27.664062 45.667969 27.484375 45.847656 C 27.304688 46.03125 27.085938 46.121094 26.832031 46.121094 C 26.578125 46.121094 26.363281 46.03125 26.183594 45.847656 C 26.003906 45.667969 25.914062 45.453125 25.914062 45.195312 C 25.914062 44.941406 26.003906 44.722656 26.183594 44.542969 C 26.363281 44.363281 26.578125 44.273438 26.832031 44.273438 C 27.085938 44.273438 27.304688 44.363281 27.484375 44.542969 C 27.664062 44.722656 27.753906 44.941406 27.753906 45.195312 Z M 27.753906 45.195312 " fill-opacity="1" fill-rule="nonzero"/><path fill="#ffffff" d="M 30.054688 45.933594 C 30.054688 46.164062 29.972656 46.359375 29.8125 46.523438 C 29.648438 46.6875 29.453125 46.765625 29.226562 46.765625 C 28.996094 46.765625 28.800781 46.6875 28.640625 46.523438 C 28.476562 46.359375 28.398438 46.164062 28.398438 45.933594 C 28.398438 45.707031 28.476562 45.507812 28.640625 45.347656 C 28.800781 45.183594 28.996094 45.105469 29.226562 45.105469 C 29.453125 45.105469 29.648438 45.183594 29.8125 45.347656 C 29.972656 45.507812 30.054688 45.707031 30.054688 45.933594 Z M 30.054688 45.933594 " fill-opacity="1" fill-rule="nonzero"/><path fill="#ffffff" d="M 30.328125 43.164062 C 30.328125 43.367188 30.257812 43.542969 30.113281 43.6875 C 29.96875 43.832031 29.796875 43.902344 29.59375 43.902344 C 29.390625 43.902344 29.214844 43.832031 29.074219 43.6875 C 28.929688 43.542969 28.855469 43.367188 28.855469 43.164062 C 28.855469 42.960938 28.929688 42.785156 29.074219 42.640625 C 29.214844 42.496094 29.390625 42.425781 29.59375 42.425781 C 29.796875 42.425781 29.96875 42.496094 30.113281 42.640625 C 30.257812 42.785156 30.328125 42.960938 30.328125 43.164062 Z M 30.328125 43.164062 " fill-opacity="1" fill-rule="nonzero"/><path fill="#ffffff" d="M 28.582031 42.148438 C 28.582031 42.378906 28.5 42.574219 28.339844 42.734375 C 28.175781 42.898438 27.980469 42.980469 27.753906 42.980469 C 27.523438 42.980469 27.328125 42.898438 27.167969 42.734375 C 27.003906 42.574219 26.925781 42.378906 26.925781 42.148438 C 26.925781 41.917969 27.003906 41.722656 27.167969 41.558594 C 27.328125 41.398438 27.523438 41.316406 27.753906 41.316406 C 27.980469 41.316406 28.175781 41.398438 28.339844 41.558594 C 28.5 41.722656 28.582031 41.917969 28.582031 42.148438 Z M 28.582031 42.148438 " fill-opacity="1" fill-rule="nonzero"/><path fill="#ffffff" d="M 26.28125 41.5 C 26.28125 41.757812 26.191406 41.972656 26.011719 42.152344 C 25.832031 42.335938 25.613281 42.425781 25.359375 42.425781 C 25.105469 42.425781 24.890625 42.335938 24.710938 42.152344 C 24.53125 41.972656 24.441406 41.757812 24.441406 41.5 C 24.441406 41.246094 24.53125 41.027344 24.710938 40.847656 C 24.890625 40.667969 25.105469 40.578125 25.359375 40.578125 C 25.613281 40.578125 25.832031 40.667969 26.011719 40.847656 C 26.191406 41.027344 26.28125 41.246094 26.28125 41.5 Z M 26.28125 41.5 " fill-opacity="1" fill-rule="nonzero"/><path fill="#ffffff" d="M 23.519531 41.316406 C 23.519531 41.464844 23.492188 41.605469 23.4375 41.742188 C 23.378906 41.875 23.300781 41.996094 23.195312 42.101562 C 23.09375 42.203125 22.972656 42.285156 22.839844 42.339844 C 22.703125 42.398438 22.5625 42.425781 22.414062 42.425781 C 22.269531 42.425781 22.128906 42.398438 21.992188 42.339844 C 21.859375 42.285156 21.738281 42.203125 21.632812 42.101562 C 21.53125 41.996094 21.449219 41.875 21.394531 41.742188 C 21.339844 41.605469 21.3125 41.464844 21.3125 41.316406 C 21.3125 41.167969 21.339844 41.027344 21.394531 40.890625 C 21.449219 40.757812 21.53125 40.636719 21.632812 40.53125 C 21.738281 40.429688 21.859375 40.347656 21.992188 40.292969 C 22.128906 40.234375 22.269531 40.207031 22.414062 40.207031 C 22.5625 40.207031 22.703125 40.234375 22.839844 40.292969 C 22.972656 40.347656 23.09375 40.429688 23.195312 40.53125 C 23.300781 40.636719 23.378906 40.757812 23.4375 40.890625 C 23.492188 41.027344 23.519531 41.167969 23.519531 41.316406 Z M 23.519531 41.316406 " fill-opacity="1" fill-rule="nonzero"/><path fill="#ffffff" d="M 19.839844 38.542969 C 19.839844 38.714844 19.804688 38.882812 19.742188 39.039062 C 19.675781 39.199219 19.582031 39.339844 19.460938 39.460938 C 19.339844 39.582031 19.203125 39.675781 19.042969 39.738281 C 18.886719 39.804688 18.722656 39.839844 18.550781 39.839844 C 18.378906 39.839844 18.214844 39.804688 18.058594 39.738281 C 17.898438 39.675781 17.761719 39.582031 17.640625 39.460938 C 17.519531 39.339844 17.425781 39.199219 17.359375 39.039062 C 17.292969 38.882812 17.261719 38.714844 17.261719 38.542969 C 17.261719 38.375 17.292969 38.207031 17.359375 38.050781 C 17.425781 37.890625 17.519531 37.75 17.640625 37.628906 C 17.761719 37.507812 17.898438 37.414062 18.058594 37.351562 C 18.214844 37.285156 18.378906 37.25 18.550781 37.25 C 18.722656 37.25 18.886719 37.285156 19.042969 37.351562 C 19.203125 37.414062 19.339844 37.507812 19.460938 37.628906 C 19.582031 37.75 19.675781 37.890625 19.742188 38.050781 C 19.804688 38.207031 19.839844 38.375 19.839844 38.542969 Z M 19.839844 38.542969 " fill-opacity="1" fill-rule="nonzero"/><path fill="#ffffff" d="M 22.96875 37.992188 C 22.96875 38.136719 22.941406 38.277344 22.882812 38.414062 C 22.828125 38.550781 22.746094 38.671875 22.644531 38.773438 C 22.539062 38.878906 22.421875 38.957031 22.285156 39.015625 C 22.152344 39.070312 22.007812 39.097656 21.863281 39.097656 C 21.714844 39.097656 21.574219 39.070312 21.441406 39.015625 C 21.304688 38.957031 21.1875 38.878906 21.082031 38.773438 C 20.980469 38.671875 20.898438 38.550781 20.84375 38.414062 C 20.785156 38.277344 20.757812 38.136719 20.757812 37.992188 C 20.757812 37.84375 20.785156 37.703125 20.84375 37.566406 C 20.898438 37.429688 20.980469 37.308594 21.082031 37.207031 C 21.1875 37.101562 21.304688 37.023438 21.441406 36.964844 C 21.574219 36.910156 21.714844 36.882812 21.863281 36.882812 C 22.007812 36.882812 22.152344 36.910156 22.285156 36.964844 C 22.421875 37.023438 22.539062 37.101562 22.644531 37.207031 C 22.746094 37.308594 22.828125 37.429688 22.882812 37.566406 C 22.941406 37.703125 22.96875 37.84375 22.96875 37.992188 Z M 22.96875 37.992188 " fill-opacity="1" fill-rule="nonzero"/><path fill="#ffffff" d="M 25.726562 38.082031 C 25.726562 38.339844 25.636719 38.554688 25.457031 38.734375 C 25.277344 38.917969 25.0625 39.007812 24.808594 39.007812 C 24.554688 39.007812 24.335938 38.917969 24.15625 38.734375 C 23.976562 38.554688 23.886719 38.339844 23.886719 38.082031 C 23.886719 37.828125 23.976562 37.609375 24.15625 37.429688 C 24.335938 37.25 24.554688 37.160156 24.808594 37.160156 C 25.0625 37.160156 25.277344 37.25 25.457031 37.429688 C 25.636719 37.609375 25.726562 37.828125 25.726562 38.082031 Z M 25.726562 38.082031 " fill-opacity="1" fill-rule="nonzero"/><path fill="#ffffff" d="M 28.027344 38.820312 C 28.027344 39.050781 27.949219 39.246094 27.785156 39.410156 C 27.625 39.570312 27.429688 39.652344 27.199219 39.652344 C 26.972656 39.652344 26.777344 39.570312 26.613281 39.410156 C 26.453125 39.246094 26.371094 39.050781 26.371094 38.820312 C 26.371094 38.59375 26.453125 38.394531 26.613281 38.234375 C 26.777344 38.070312 26.972656 37.992188 27.199219 37.992188 C 27.429688 37.992188 27.625 38.070312 27.785156 38.234375 C 27.949219 38.394531 28.027344 38.59375 28.027344 38.820312 Z M 28.027344 38.820312 " fill-opacity="1" fill-rule="nonzero"/><path fill="#ffffff" d="M 29.777344 39.839844 C 29.777344 40.042969 29.707031 40.214844 29.5625 40.359375 C 29.417969 40.503906 29.246094 40.578125 29.042969 40.578125 C 28.835938 40.578125 28.664062 40.503906 28.519531 40.359375 C 28.375 40.214844 28.304688 40.042969 28.304688 39.839844 C 28.304688 39.632812 28.375 39.460938 28.519531 39.316406 C 28.664062 39.171875 28.835938 39.097656 29.042969 39.097656 C 29.246094 39.097656 29.417969 39.171875 29.5625 39.316406 C 29.707031 39.460938 29.777344 39.632812 29.777344 39.839844 Z M 29.777344 39.839844 " fill-opacity="1" fill-rule="nonzero"/><path fill="#ffffff" d="M 30.882812 41.039062 C 30.882812 41.191406 30.828125 41.324219 30.71875 41.429688 C 30.613281 41.539062 30.480469 41.59375 30.328125 41.59375 C 30.175781 41.59375 30.046875 41.539062 29.9375 41.429688 C 29.832031 41.324219 29.777344 41.191406 29.777344 41.039062 C 29.777344 40.886719 29.832031 40.753906 29.9375 40.648438 C 30.046875 40.539062 30.175781 40.484375 30.328125 40.484375 C 30.480469 40.484375 30.613281 40.539062 30.71875 40.648438 C 30.828125 40.753906 30.882812 40.886719 30.882812 41.039062 Z M 30.882812 41.039062 " fill-opacity="1" fill-rule="nonzero"/><g fill="#808080" fill-opacity="1"><g transform="translate(55.01319, 18.847109)"><g><path d="M 6.5 -4.015625 C 6.5 -4.941406 6.304688 -5.660156 5.921875 -6.171875 C 5.535156 -6.691406 4.992188 -6.953125 4.296875 -6.953125 C 3.609375 -6.953125 3.070312 -6.691406 2.6875 -6.171875 C 2.300781 -5.660156 2.109375 -4.941406 2.109375 -4.015625 C 2.109375 -3.085938 2.300781 -2.363281 2.6875 -1.84375 C 3.070312 -1.332031 3.609375 -1.078125 4.296875 -1.078125 C 4.992188 -1.078125 5.535156 -1.332031 5.921875 -1.84375 C 6.304688 -2.363281 6.5 -3.085938 6.5 -4.015625 Z M 7.78125 -0.96875 C 7.78125 0.363281 7.484375 1.351562 6.890625 2 C 6.296875 2.65625 5.390625 2.984375 4.171875 2.984375 C 3.722656 2.984375 3.296875 2.945312 2.890625 2.875 C 2.492188 2.8125 2.109375 2.710938 1.734375 2.578125 L 1.734375 1.3125 C 2.109375 1.519531 2.476562 1.671875 2.84375 1.765625 C 3.21875 1.867188 3.59375 1.921875 3.96875 1.921875 C 4.8125 1.921875 5.441406 1.695312 5.859375 1.25 C 6.285156 0.8125 6.5 0.144531 6.5 -0.75 L 6.5 -1.375 C 6.226562 -0.914062 5.882812 -0.570312 5.46875 -0.34375 C 5.0625 -0.113281 4.566406 0 3.984375 0 C 3.023438 0 2.25 -0.363281 1.65625 -1.09375 C 1.070312 -1.832031 0.78125 -2.804688 0.78125 -4.015625 C 0.78125 -5.222656 1.070312 -6.191406 1.65625 -6.921875 C 2.25 -7.660156 3.023438 -8.03125 3.984375 -8.03125 C 4.566406 -8.03125 5.0625 -7.914062 5.46875 -7.6875 C 5.882812 -7.457031 6.226562 -7.113281 6.5 -6.65625 L 6.5 -7.84375 L 7.78125 -7.84375 Z M 7.78125 -0.96875 "/></g></g></g><g fill="#808080" fill-opacity="1"><g transform="translate(64.080915, 18.847109)"><g><path d="M 5.875 -6.640625 C 5.726562 -6.722656 5.570312 -6.785156 5.40625 -6.828125 C 5.238281 -6.867188 5.050781 -6.890625 4.84375 -6.890625 C 4.113281 -6.890625 3.554688 -6.648438 3.171875 -6.171875 C 2.785156 -5.703125 2.59375 -5.019531 2.59375 -4.125 L 2.59375 0 L 1.296875 0 L 1.296875 -7.84375 L 2.59375 -7.84375 L 2.59375 -6.625 C 2.863281 -7.101562 3.210938 -7.457031 3.640625 -7.6875 C 4.078125 -7.914062 4.601562 -8.03125 5.21875 -8.03125 C 5.3125 -8.03125 5.410156 -8.023438 5.515625 -8.015625 C 5.617188 -8.003906 5.738281 -7.988281 5.875 -7.96875 Z M 5.875 -6.640625 "/></g></g></g><g fill="#808080" fill-opacity="1"><g transform="translate(69.639917, 18.847109)"><g><path d="M 8.03125 -4.25 L 8.03125 -3.609375 L 2.125 -3.609375 C 2.1875 -2.722656 2.453125 -2.046875 2.921875 -1.578125 C 3.398438 -1.117188 4.066406 -0.890625 4.921875 -0.890625 C 5.410156 -0.890625 5.882812 -0.945312 6.34375 -1.0625 C 6.8125 -1.1875 7.273438 -1.375 7.734375 -1.625 L 7.734375 -0.40625 C 7.273438 -0.207031 6.800781 -0.0546875 6.3125 0.046875 C 5.832031 0.148438 5.34375 0.203125 4.84375 0.203125 C 3.59375 0.203125 2.601562 -0.160156 1.875 -0.890625 C 1.144531 -1.617188 0.78125 -2.601562 0.78125 -3.84375 C 0.78125 -5.125 1.125 -6.140625 1.8125 -6.890625 C 2.507812 -7.648438 3.445312 -8.03125 4.625 -8.03125 C 5.675781 -8.03125 6.503906 -7.691406 7.109375 -7.015625 C 7.722656 -6.335938 8.03125 -5.414062 8.03125 -4.25 Z M 6.75 -4.625 C 6.738281 -5.332031 6.539062 -5.894531 6.15625 -6.3125 C 5.769531 -6.726562 5.265625 -6.9375 4.640625 -6.9375 C 3.921875 -6.9375 3.34375 -6.734375 2.90625 -6.328125 C 2.476562 -5.921875 2.234375 -5.347656 2.171875 -4.609375 Z M 6.75 -4.625 "/></g></g></g><g fill="#808080" fill-opacity="1"><g transform="translate(78.428635, 18.847109)"><g><path d="M 4.90625 -3.9375 C 3.863281 -3.9375 3.140625 -3.816406 2.734375 -3.578125 C 2.335938 -3.347656 2.140625 -2.945312 2.140625 -2.375 C 2.140625 -1.914062 2.289062 -1.550781 2.59375 -1.28125 C 2.894531 -1.007812 3.300781 -0.875 3.8125 -0.875 C 4.53125 -0.875 5.101562 -1.125 5.53125 -1.625 C 5.957031 -2.132812 6.171875 -2.8125 6.171875 -3.65625 L 6.171875 -3.9375 Z M 7.46875 -4.46875 L 7.46875 0 L 6.171875 0 L 6.171875 -1.1875 C 5.878906 -0.707031 5.515625 -0.351562 5.078125 -0.125 C 4.640625 0.09375 4.101562 0.203125 3.46875 0.203125 C 2.675781 0.203125 2.039062 -0.0195312 1.5625 -0.46875 C 1.09375 -0.925781 0.859375 -1.53125 0.859375 -2.28125 C 0.859375 -3.164062 1.148438 -3.832031 1.734375 -4.28125 C 2.328125 -4.726562 3.207031 -4.953125 4.375 -4.953125 L 6.171875 -4.953125 L 6.171875 -5.078125 C 6.171875 -5.671875 5.976562 -6.128906 5.59375 -6.453125 C 5.207031 -6.773438 4.660156 -6.9375 3.953125 -6.9375 C 3.503906 -6.9375 3.066406 -6.882812 2.640625 -6.78125 C 2.222656 -6.675781 1.820312 -6.515625 1.4375 -6.296875 L 1.4375 -7.484375 C 1.90625 -7.671875 2.359375 -7.804688 2.796875 -7.890625 C 3.242188 -7.984375 3.675781 -8.03125 4.09375 -8.03125 C 5.21875 -8.03125 6.0625 -7.734375 6.625 -7.140625 C 7.1875 -6.554688 7.46875 -5.664062 7.46875 -4.46875 Z M 7.46875 -4.46875 "/></g></g></g><g fill="#808080" fill-opacity="1"><g transform="translate(87.182483, 18.847109)"><g><path d="M 2.625 -10.078125 L 2.625 -7.84375 L 5.265625 -7.84375 L 5.265625 -6.84375 L 2.625 -6.84375 L 2.625 -2.578125 C 2.625 -1.941406 2.707031 -1.53125 2.875 -1.34375 C 3.050781 -1.164062 3.40625 -1.078125 3.9375 -1.078125 L 5.265625 -1.078125 L 5.265625 0 L 3.9375 0 C 2.945312 0 2.265625 -0.179688 1.890625 -0.546875 C 1.515625 -0.921875 1.328125 -1.597656 1.328125 -2.578125 L 1.328125 -6.84375 L 0.390625 -6.84375 L 0.390625 -7.84375 L 1.328125 -7.84375 L 1.328125 -10.078125 Z M 2.625 -10.078125 "/></g></g></g><g fill="#808080" fill-opacity="1"><g transform="translate(92.783553, 18.847109)"><g/></g></g><g fill="#808080" fill-opacity="1"><g transform="translate(97.324397, 18.847109)"><g><path d="M 0.59375 -7.84375 L 1.890625 -7.84375 L 3.484375 -1.71875 L 5.09375 -7.84375 L 6.609375 -7.84375 L 8.203125 -1.71875 L 9.8125 -7.84375 L 11.09375 -7.84375 L 9.046875 0 L 7.53125 0 L 5.84375 -6.421875 L 4.15625 0 L 2.640625 0 Z M 0.59375 -7.84375 "/></g></g></g><g fill="#808080" fill-opacity="1"><g transform="translate(109.007818, 18.847109)"><g><path d="M 4.375 -6.9375 C 3.6875 -6.9375 3.140625 -6.664062 2.734375 -6.125 C 2.335938 -5.59375 2.140625 -4.859375 2.140625 -3.921875 C 2.140625 -2.972656 2.335938 -2.226562 2.734375 -1.6875 C 3.140625 -1.15625 3.6875 -0.890625 4.375 -0.890625 C 5.0625 -0.890625 5.601562 -1.160156 6 -1.703125 C 6.40625 -2.242188 6.609375 -2.984375 6.609375 -3.921875 C 6.609375 -4.847656 6.40625 -5.582031 6 -6.125 C 5.601562 -6.664062 5.0625 -6.9375 4.375 -6.9375 Z M 4.375 -8.03125 C 5.488281 -8.03125 6.363281 -7.664062 7 -6.9375 C 7.644531 -6.207031 7.96875 -5.203125 7.96875 -3.921875 C 7.96875 -2.628906 7.644531 -1.617188 7 -0.890625 C 6.363281 -0.160156 5.488281 0.203125 4.375 0.203125 C 3.25 0.203125 2.367188 -0.160156 1.734375 -0.890625 C 1.097656 -1.617188 0.78125 -2.628906 0.78125 -3.921875 C 0.78125 -5.203125 1.097656 -6.207031 1.734375 -6.9375 C 2.367188 -7.664062 3.25 -8.03125 4.375 -8.03125 Z M 4.375 -8.03125 "/></g></g></g><g fill="#808080" fill-opacity="1"><g transform="translate(117.747716, 18.847109)"><g><path d="M 5.875 -6.640625 C 5.726562 -6.722656 5.570312 -6.785156 5.40625 -6.828125 C 5.238281 -6.867188 5.050781 -6.890625 4.84375 -6.890625 C 4.113281 -6.890625 3.554688 -6.648438 3.171875 -6.171875 C 2.785156 -5.703125 2.59375 -5.019531 2.59375 -4.125 L 2.59375 0 L 1.296875 0 L 1.296875 -7.84375 L 2.59375 -7.84375 L 2.59375 -6.625 C 2.863281 -7.101562 3.210938 -7.457031 3.640625 -7.6875 C 4.078125 -7.914062 4.601562 -8.03125 5.21875 -8.03125 C 5.3125 -8.03125 5.410156 -8.023438 5.515625 -8.015625 C 5.617188 -8.003906 5.738281 -7.988281 5.875 -7.96875 Z M 5.875 -6.640625 "/></g></g></g><g fill="#808080" fill-opacity="1"><g transform="translate(123.620812, 18.847109)"><g><path d="M 1.296875 -10.890625 L 2.59375 -10.890625 L 2.59375 -4.46875 L 6.421875 -7.84375 L 8.0625 -7.84375 L 3.921875 -4.171875 L 8.234375 0 L 6.5625 0 L 2.59375 -3.828125 L 2.59375 0 L 1.296875 0 Z M 1.296875 -10.890625 "/></g></g></g><g fill="#808080" fill-opacity="1"><g transform="translate(131.893368, 18.847109)"><g><path d="M 2.15625 -1.78125 L 3.578125 -1.78125 L 3.578125 0 L 2.15625 0 Z M 2.15625 -10.453125 L 3.578125 -10.453125 L 3.578125 -5.875 L 3.4375 -3.375 L 2.296875 -3.375 L 2.15625 -5.875 Z M 2.15625 -10.453125 "/></g></g></g><path stroke-linecap="butt" transform="matrix(0.920245, 0, 0, 0.923818, 0.000003, 0.0908277)" fill="none" stroke-linejoin="miter" d="M 57.69945 38.498288 L 57.499945 38.70125 L 56.400544 39.500412 Z M 58.399841 28.498181 L 56.099164 28.498181 C 53.900362 28.498181 52.1982 26.701122 52.1982 24.59962 L 52.1982 6.10048 C 52.1982 3.901725 53.997992 2.201918 56.099164 2.201918 L 157.498748 2.201918 C 159.701795 2.201918 161.399712 3.998977 161.399712 6.10048 L 161.399712 24.59962 C 161.399712 26.798374 159.59992 28.498181 157.498748 28.498181 L 70.900753 28.498181 L 57.69945 38.498288 C 61.698044 35.301636 59.898253 30.899898 58.399841 28.498181 Z M 58.399841 28.498181 " stroke="#404040" stroke-width="3" stroke-opacity="1" stroke-miterlimit="4"/><g clip-path="url(#fbc11ba628)"><g clip-path="url(#10288aae04)"><path fill="#2e3192" d="M 3.601562 24.824219 L 51 24.824219 L 51 72.226562 L 3.601562 72.226562 Z M 3.601562 24.824219 " fill-opacity="1" fill-rule="nonzero"/></g></g><g clip-path="url(#d7be647e7a)"><g clip-path="url(#9afe71a538)"><path fill="#ffffff" d="M 51 4.800781 L 145.21875 4.800781 L 145.21875 23.433594 L 51 23.433594 Z M 51 4.800781 " fill-opacity="1" fill-rule="nonzero"/></g></g><g clip-path="url(#66c1bb1733)"><path fill="#ffffff" d="M 45.320312 48.367188 C 45.226562 48.066406 44.957031 47.863281 44.589844 47.808594 L 43.796875 47.699219 L 43.441406 47 C 43.277344 46.675781 43.003906 46.488281 42.691406 46.488281 C 42.378906 46.488281 42.105469 46.675781 41.941406 47 L 41.589844 47.699219 L 40.796875 47.808594 C 40.425781 47.863281 40.160156 48.066406 40.0625 48.367188 C 39.96875 48.664062 40.066406 48.980469 40.335938 49.234375 L 40.902344 49.773438 L 40.769531 50.53125 C 40.71875 50.816406 40.777344 51.078125 40.9375 51.265625 C 41.171875 51.550781 41.585938 51.617188 41.980469 51.414062 L 42.691406 51.046875 L 43.40625 51.414062 C 43.558594 51.492188 43.714844 51.535156 43.867188 51.535156 C 44.097656 51.535156 44.304688 51.441406 44.449219 51.269531 C 44.609375 51.078125 44.667969 50.816406 44.617188 50.53125 L 44.484375 49.773438 L 45.050781 49.234375 C 45.316406 48.984375 45.417969 48.664062 45.320312 48.367188 Z M 45.320312 48.367188 " fill-opacity="1" fill-rule="nonzero"/></g><path fill="#ffffff" d="M 39.859375 58.308594 L 39.042969 58.328125 L 38.601562 57.699219 C 38.355469 57.347656 38.054688 57.296875 37.898438 57.296875 C 37.621094 57.296875 37.273438 57.460938 37.121094 57.933594 L 36.875 58.695312 L 36.113281 58.941406 C 35.761719 59.054688 35.53125 59.296875 35.484375 59.609375 C 35.4375 59.917969 35.582031 60.214844 35.878906 60.421875 L 36.511719 60.863281 L 36.492188 61.644531 C 36.480469 61.988281 36.613281 62.195312 36.722656 62.3125 C 36.863281 62.453125 37.054688 62.535156 37.257812 62.535156 C 37.449219 62.535156 37.644531 62.460938 37.824219 62.328125 L 38.464844 61.84375 L 39.210938 62.089844 C 39.597656 62.214844 39.976562 62.113281 40.175781 61.832031 C 40.269531 61.703125 40.402344 61.433594 40.269531 61.027344 L 40.023438 60.285156 L 40.507812 59.644531 C 40.726562 59.351562 40.773438 59.023438 40.636719 58.742188 C 40.5 58.46875 40.214844 58.308594 39.859375 58.308594 Z M 39.859375 58.308594 " fill-opacity="1" fill-rule="nonzero"/><path fill="#ffffff" d="M 41.148438 37.800781 C 41.101562 37.492188 40.875 37.246094 40.519531 37.132812 L 39.757812 36.886719 L 39.511719 36.125 C 39.363281 35.65625 39.011719 35.488281 38.734375 35.488281 C 38.578125 35.488281 38.277344 35.539062 38.03125 35.890625 L 37.589844 36.523438 L 36.808594 36.503906 L 36.773438 36.503906 C 36.417969 36.503906 36.132812 36.660156 35.996094 36.933594 C 35.859375 37.214844 35.90625 37.542969 36.125 37.835938 L 36.609375 38.476562 L 36.363281 39.222656 C 36.230469 39.625 36.363281 39.898438 36.457031 40.023438 C 36.660156 40.304688 37.039062 40.410156 37.425781 40.28125 L 38.167969 40.035156 L 38.808594 40.519531 C 38.988281 40.65625 39.1875 40.726562 39.378906 40.726562 C 39.582031 40.726562 39.769531 40.648438 39.910156 40.503906 C 40.019531 40.390625 40.152344 40.179688 40.144531 39.839844 L 40.125 39.054688 L 40.753906 38.613281 C 41.050781 38.40625 41.195312 38.109375 41.148438 37.800781 Z M 41.148438 37.800781 " fill-opacity="1" fill-rule="nonzero"/><g clip-path="url(#58250614b8)"><path fill="#ffffff" d="M 30.042969 33.167969 C 29.945312 32.867188 29.679688 32.664062 29.308594 32.613281 L 28.515625 32.5 L 28.164062 31.800781 C 27.996094 31.476562 27.722656 31.289062 27.414062 31.289062 C 27.101562 31.289062 26.828125 31.476562 26.664062 31.800781 L 26.308594 32.5 L 25.515625 32.613281 C 25.148438 32.664062 24.878906 32.867188 24.785156 33.167969 C 24.6875 33.464844 24.785156 33.785156 25.054688 34.035156 L 25.621094 34.574219 L 25.488281 35.332031 C 25.4375 35.617188 25.496094 35.878906 25.65625 36.070312 C 25.894531 36.351562 26.304688 36.417969 26.699219 36.214844 L 27.414062 35.851562 L 28.125 36.214844 C 28.28125 36.296875 28.433594 36.335938 28.585938 36.335938 C 28.816406 36.335938 29.023438 36.242188 29.167969 36.070312 C 29.328125 35.878906 29.386719 35.621094 29.335938 35.335938 L 29.203125 34.574219 L 29.769531 34.039062 C 30.039062 33.785156 30.136719 33.46875 30.042969 33.167969 Z M 30.042969 33.167969 " fill-opacity="1" fill-rule="nonzero"/></g><g clip-path="url(#d45164faeb)"><path fill="#ffffff" d="M 11.417969 51.414062 L 12.132812 51.046875 L 12.84375 51.414062 C 13 51.492188 13.152344 51.535156 13.304688 51.535156 C 13.539062 51.535156 13.746094 51.441406 13.890625 51.269531 C 14.046875 51.078125 14.105469 50.816406 14.058594 50.53125 L 13.925781 49.773438 L 14.488281 49.234375 C 14.757812 48.984375 14.855469 48.664062 14.761719 48.367188 C 14.664062 48.066406 14.398438 47.863281 14.027344 47.808594 L 13.234375 47.699219 L 12.882812 47 C 12.71875 46.675781 12.445312 46.488281 12.132812 46.488281 C 11.820312 46.488281 11.546875 46.675781 11.382812 47 L 11.03125 47.699219 L 10.234375 47.808594 C 9.867188 47.863281 9.597656 48.066406 9.503906 48.367188 C 9.40625 48.664062 9.507812 48.980469 9.773438 49.234375 L 10.339844 49.773438 L 10.207031 50.53125 C 10.15625 50.816406 10.214844 51.078125 10.375 51.269531 C 10.613281 51.550781 11.027344 51.617188 11.417969 51.414062 Z M 11.417969 51.414062 " fill-opacity="1" fill-rule="nonzero"/></g><g clip-path="url(#4bb6913a95)"><path fill="#ffffff" d="M 30.042969 64.007812 C 29.945312 63.707031 29.679688 63.503906 29.308594 63.453125 L 28.515625 63.339844 L 28.164062 62.640625 C 27.996094 62.316406 27.722656 62.128906 27.414062 62.128906 C 27.101562 62.128906 26.828125 62.316406 26.664062 62.640625 L 26.308594 63.339844 L 25.515625 63.453125 C 25.148438 63.503906 24.878906 63.707031 24.785156 64.007812 C 24.6875 64.308594 24.785156 64.625 25.054688 64.878906 L 25.621094 65.417969 L 25.488281 66.175781 C 25.4375 66.460938 25.496094 66.722656 25.65625 66.910156 C 25.894531 67.195312 26.304688 67.257812 26.699219 67.058594 L 27.414062 66.691406 L 28.125 67.058594 C 28.28125 67.136719 28.433594 67.175781 28.585938 67.175781 C 28.816406 67.175781 29.023438 67.082031 29.167969 66.910156 C 29.328125 66.722656 29.386719 66.460938 29.335938 66.175781 L 29.203125 65.417969 L 29.769531 64.878906 C 30.039062 64.625 30.136719 64.308594 30.042969 64.007812 Z M 30.042969 64.007812 " fill-opacity="1" fill-rule="nonzero"/></g><path fill="#ffffff" d="M 14.914062 40.503906 C 15.054688 40.648438 15.246094 40.726562 15.449219 40.726562 C 15.640625 40.726562 15.835938 40.652344 16.015625 40.519531 L 16.65625 40.035156 L 17.402344 40.28125 C 17.789062 40.410156 18.167969 40.304688 18.371094 40.023438 C 18.460938 39.898438 18.59375 39.625 18.460938 39.21875 L 18.214844 38.476562 L 18.699219 37.835938 C 18.921875 37.542969 18.96875 37.214844 18.828125 36.933594 C 18.691406 36.660156 18.40625 36.503906 18.050781 36.503906 L 17.234375 36.523438 L 16.792969 35.890625 C 16.546875 35.539062 16.246094 35.488281 16.089844 35.488281 C 15.8125 35.488281 15.464844 35.65625 15.3125 36.125 L 15.066406 36.886719 L 14.304688 37.132812 C 13.953125 37.246094 13.722656 37.488281 13.675781 37.800781 C 13.628906 38.109375 13.773438 38.40625 14.070312 38.613281 L 14.703125 39.054688 L 14.683594 39.835938 C 14.671875 40.179688 14.804688 40.386719 14.914062 40.503906 Z M 14.914062 40.503906 " fill-opacity="1" fill-rule="nonzero"/><path fill="#ffffff" d="M 14.1875 58.742188 C 14.050781 59.023438 14.097656 59.351562 14.320312 59.644531 L 14.800781 60.285156 L 14.554688 61.03125 C 14.421875 61.433594 14.558594 61.707031 14.648438 61.832031 C 14.851562 62.113281 15.230469 62.214844 15.617188 62.089844 L 16.359375 61.84375 L 17 62.328125 C 17.179688 62.460938 17.378906 62.535156 17.570312 62.535156 C 17.773438 62.535156 17.960938 62.453125 18.101562 62.3125 C 18.214844 62.195312 18.34375 61.988281 18.335938 61.648438 L 18.316406 60.863281 L 18.945312 60.421875 C 19.242188 60.214844 19.386719 59.917969 19.339844 59.609375 C 19.296875 59.296875 19.066406 59.054688 18.714844 58.941406 L 17.949219 58.695312 L 17.703125 57.933594 C 17.554688 57.464844 17.203125 57.296875 16.925781 57.296875 C 16.769531 57.296875 16.46875 57.347656 16.222656 57.699219 L 15.78125 58.332031 L 15 58.3125 L 14.964844 58.3125 C 14.609375 58.3125 14.324219 58.46875 14.1875 58.742188 Z M 14.1875 58.742188 " fill-opacity="1" fill-rule="nonzero"/><path fill="#ffffff" d="M 23.976562 39.707031 C 23.976562 39.710938 23.976562 39.710938 23.976562 39.714844 C 23.972656 39.710938 23.96875 39.710938 23.964844 39.707031 C 23.515625 39.460938 23.054688 39.207031 22.523438 39.207031 C 22.253906 39.207031 21.996094 39.273438 21.777344 39.40625 C 20.988281 39.871094 20.976562 40.796875 20.96875 41.46875 C 20.96875 41.476562 20.96875 41.480469 20.96875 41.484375 C 20.96875 41.484375 20.964844 41.484375 20.960938 41.484375 C 20.6875 41.441406 20.40625 41.398438 20.121094 41.398438 C 19.546875 41.398438 19.101562 41.585938 18.796875 41.953125 C 18.21875 42.65625 18.523438 43.527344 18.742188 44.160156 C 18.746094 44.167969 18.746094 44.175781 18.75 44.183594 C 18.746094 44.183594 18.746094 44.183594 18.742188 44.183594 C 18.078125 44.316406 17.171875 44.5 16.863281 45.367188 C 16.558594 46.222656 17.136719 46.933594 17.554688 47.453125 C 17.5625 47.460938 17.566406 47.46875 17.574219 47.476562 C 17.570312 47.476562 17.570312 47.476562 17.566406 47.480469 C 16.988281 47.832031 16.199219 48.308594 16.199219 49.234375 C 16.199219 50.15625 16.988281 50.636719 17.566406 50.984375 C 17.570312 50.988281 17.574219 50.988281 17.574219 50.988281 C 17.566406 50.996094 17.5625 51.003906 17.554688 51.011719 C 17.136719 51.53125 16.558594 52.242188 16.863281 53.097656 C 17.171875 53.96875 18.078125 54.148438 18.742188 54.28125 C 18.746094 54.28125 18.746094 54.28125 18.75 54.28125 C 18.746094 54.289062 18.746094 54.296875 18.742188 54.304688 C 18.523438 54.941406 18.21875 55.808594 18.800781 56.511719 C 19.101562 56.878906 19.546875 57.066406 20.117188 57.066406 C 20.40625 57.066406 20.6875 57.023438 20.960938 56.980469 C 20.964844 56.980469 20.96875 56.980469 20.96875 56.980469 C 20.96875 56.984375 20.96875 56.992188 20.96875 56.996094 C 20.976562 57.671875 20.988281 58.59375 21.773438 59.0625 C 21.996094 59.191406 22.253906 59.261719 22.523438 59.261719 C 23.054688 59.261719 23.515625 59.003906 23.964844 58.757812 C 23.96875 58.757812 23.972656 58.753906 23.976562 58.753906 C 23.976562 58.753906 23.976562 58.757812 23.976562 58.757812 C 24.21875 59.394531 24.546875 60.261719 25.453125 60.425781 C 25.535156 60.441406 25.617188 60.449219 25.703125 60.449219 C 26.472656 60.449219 26.984375 59.859375 27.390625 59.382812 C 27.398438 59.378906 27.40625 59.371094 27.414062 59.363281 C 27.417969 59.371094 27.425781 59.378906 27.433594 59.386719 C 27.839844 59.859375 28.351562 60.449219 29.121094 60.449219 C 29.207031 60.449219 29.289062 60.441406 29.371094 60.425781 C 30.28125 60.261719 30.609375 59.394531 30.847656 58.757812 C 30.847656 58.757812 30.847656 58.753906 30.851562 58.753906 C 30.851562 58.753906 30.855469 58.757812 30.859375 58.757812 C 31.308594 59.003906 31.769531 59.261719 32.300781 59.261719 C 32.570312 59.261719 32.828125 59.191406 33.050781 59.0625 C 33.835938 58.59375 33.847656 57.671875 33.855469 56.996094 C 33.855469 56.992188 33.855469 56.984375 33.855469 56.980469 C 33.855469 56.980469 33.859375 56.980469 33.863281 56.980469 C 34.136719 57.023438 34.421875 57.066406 34.707031 57.066406 C 35.277344 57.066406 35.722656 56.878906 36.027344 56.511719 C 36.605469 55.808594 36.304688 54.941406 36.082031 54.304688 C 36.078125 54.296875 36.078125 54.289062 36.074219 54.28125 C 36.078125 54.28125 36.078125 54.28125 36.082031 54.28125 C 36.746094 54.148438 37.652344 53.96875 37.960938 53.101562 C 38.265625 52.242188 37.691406 51.53125 37.269531 51.011719 C 37.261719 51.003906 37.257812 50.996094 37.25 50.988281 C 37.253906 50.988281 37.253906 50.988281 37.257812 50.988281 C 37.835938 50.636719 38.628906 50.15625 38.628906 49.234375 C 38.628906 48.308594 37.835938 47.832031 37.257812 47.480469 C 37.253906 47.476562 37.253906 47.476562 37.25 47.476562 C 37.257812 47.46875 37.261719 47.460938 37.269531 47.453125 C 37.691406 46.933594 38.265625 46.222656 37.960938 45.367188 C 37.652344 44.5 36.746094 44.316406 36.082031 44.183594 C 36.082031 44.183594 36.078125 44.183594 36.074219 44.183594 C 36.078125 44.175781 36.078125 44.167969 36.082031 44.160156 C 36.304688 43.527344 36.605469 42.65625 36.023438 41.953125 C 35.722656 41.585938 35.277344 41.398438 34.707031 41.398438 C 34.421875 41.398438 34.136719 41.441406 33.863281 41.484375 C 33.859375 41.484375 33.855469 41.484375 33.855469 41.484375 C 33.855469 41.480469 33.855469 41.476562 33.855469 41.46875 C 33.847656 40.796875 33.839844 39.871094 33.050781 39.40625 C 32.828125 39.273438 32.570312 39.207031 32.300781 39.207031 C 31.769531 39.207031 31.308594 39.460938 30.859375 39.707031 C 30.855469 39.710938 30.851562 39.710938 30.851562 39.714844 C 30.847656 39.710938 30.847656 39.710938 30.847656 39.707031 C 30.609375 39.074219 30.28125 38.203125 29.371094 38.039062 C 29.289062 38.023438 29.207031 38.019531 29.121094 38.019531 C 28.351562 38.019531 27.84375 38.609375 27.433594 39.082031 C 27.425781 39.089844 27.417969 39.097656 27.414062 39.105469 C 27.40625 39.097656 27.398438 39.089844 27.390625 39.082031 C 26.984375 38.609375 26.472656 38.019531 25.703125 38.019531 C 25.617188 38.019531 25.535156 38.023438 25.453125 38.039062 C 24.546875 38.203125 24.21875 39.074219 23.976562 39.707031 Z M 25.261719 48.761719 C 25.484375 48.621094 25.734375 48.460938 25.851562 48.378906 C 25.90625 48.285156 27.28125 46.011719 27.367188 45.652344 L 27.367188 45.195312 C 27.367188 45.113281 27.363281 45.027344 27.359375 44.945312 C 27.335938 44.484375 27.304688 43.859375 27.84375 43.402344 C 28.089844 43.199219 28.367188 43.082031 28.65625 43.066406 C 28.878906 43.054688 29.113281 43.101562 29.339844 43.210938 C 30.308594 43.664062 30.457031 45.085938 30.519531 45.691406 C 30.542969 45.945312 30.371094 46.832031 30.1875 47.53125 L 32.535156 47.535156 C 33.28125 47.535156 33.824219 48.023438 33.859375 48.71875 C 33.882812 49.210938 33.710938 49.519531 33.550781 49.703125 C 33.65625 49.867188 33.714844 50.058594 33.714844 50.273438 C 33.714844 50.675781 33.535156 51.039062 33.253906 51.28125 C 33.324219 51.441406 33.363281 51.621094 33.363281 51.808594 C 33.363281 52.253906 33.144531 52.644531 32.808594 52.886719 C 32.859375 53.03125 32.886719 53.183594 32.886719 53.34375 C 32.886719 54.078125 32.292969 54.671875 31.5625 54.671875 L 26.921875 54.671875 C 26.871094 54.671875 26.820312 54.664062 26.769531 54.648438 C 26.539062 54.585938 26.359375 54.464844 26.21875 54.367188 C 26.148438 54.320312 26.082031 54.273438 26.03125 54.25 C 25.980469 54.25 25.941406 54.253906 25.902344 54.257812 C 25.71875 54.273438 25.550781 54.269531 25.40625 54.230469 C 25.253906 54.371094 25.0625 54.46875 24.859375 54.496094 C 24.859375 54.496094 22.34375 54.839844 22.304688 54.839844 C 21.867188 54.839844 21.523438 54.507812 21.523438 54.050781 L 21.523438 48.964844 C 21.523438 48.515625 21.855469 48.195312 22.285156 48.195312 C 22.328125 48.195312 23.488281 48.375 23.488281 48.375 C 23.546875 48.375 24.859375 48.597656 24.859375 48.597656 C 25.003906 48.621094 25.140625 48.679688 25.261719 48.761719 Z M 25.261719 48.761719 " fill-opacity="1" fill-rule="nonzero"/><path fill="#ffffff" d="M 26.847656 53.4375 C 26.910156 53.480469 26.972656 53.523438 27.023438 53.550781 L 27.257812 53.550781 C 27.273438 53.550781 27.285156 53.550781 27.300781 53.550781 L 30.074219 53.554688 C 30.089844 53.550781 30.105469 53.550781 30.117188 53.550781 L 31.5625 53.550781 C 31.675781 53.550781 31.765625 53.457031 31.765625 53.34375 C 31.765625 53.234375 31.679688 53.140625 31.570312 53.136719 C 31.535156 53.136719 31.496094 53.128906 31.460938 53.121094 L 30.988281 53.121094 C 30.679688 53.121094 30.429688 52.871094 30.429688 52.558594 C 30.429688 52.25 30.679688 52 30.988281 52 L 31.898438 52 C 31.945312 52 31.988281 52.007812 32.027344 52.015625 L 32.035156 52.015625 C 32.148438 52.015625 32.238281 51.921875 32.238281 51.808594 C 32.238281 51.695312 32.152344 51.605469 32.046875 51.601562 C 31.988281 51.597656 31.933594 51.585938 31.882812 51.566406 L 31.085938 51.566406 C 30.777344 51.566406 30.527344 51.316406 30.527344 51.007812 C 30.527344 50.695312 30.777344 50.445312 31.085938 50.445312 L 32.496094 50.445312 C 32.554688 50.410156 32.59375 50.347656 32.59375 50.273438 C 32.578125 50.242188 32.433594 50.136719 32.269531 50.109375 L 31.085938 50.109375 C 30.777344 50.109375 30.527344 49.859375 30.527344 49.550781 C 30.527344 49.238281 30.777344 48.988281 31.085938 48.988281 L 32.648438 48.988281 C 32.679688 48.980469 32.703125 48.96875 32.710938 48.960938 C 32.722656 48.949219 32.746094 48.894531 32.738281 48.773438 C 32.734375 48.722656 32.734375 48.65625 32.535156 48.65625 L 29.425781 48.652344 C 29.214844 48.652344 29.023438 48.535156 28.925781 48.347656 C 28.84375 48.179688 28.847656 47.984375 28.9375 47.824219 C 29.046875 47.542969 29.40625 46.082031 29.402344 45.792969 C 29.285156 44.652344 29.042969 44.308594 28.863281 44.226562 C 28.808594 44.199219 28.757812 44.1875 28.722656 44.1875 C 28.675781 44.1875 28.621094 44.214844 28.566406 44.261719 C 28.464844 44.347656 28.460938 44.527344 28.476562 44.890625 C 28.484375 44.992188 28.488281 45.09375 28.488281 45.195312 L 28.488281 45.679688 C 28.488281 46.066406 28.160156 46.726562 27.089844 48.496094 C 26.964844 48.699219 26.828125 48.929688 26.800781 48.980469 C 26.742188 49.113281 26.71875 49.167969 26.078125 49.574219 L 26.078125 53.128906 C 26.195312 53.132812 26.304688 53.152344 26.402344 53.191406 C 26.582031 53.257812 26.722656 53.355469 26.847656 53.4375 Z M 26.847656 53.4375 " fill-opacity="1" fill-rule="nonzero"/><path fill="#ffffff" d="M 22.929688 50.183594 L 22.929688 49.421875 L 22.644531 49.378906 L 22.644531 53.667969 L 24.640625 53.394531 L 24.640625 49.695312 L 24.050781 49.601562 L 24.050781 50.183594 C 24.050781 50.492188 23.800781 50.742188 23.488281 50.742188 C 23.179688 50.742188 22.929688 50.492188 22.929688 50.183594 Z M 22.929688 50.183594 " fill-opacity="1" fill-rule="nonzero"/><g fill="#737373" fill-opacity="1"><g transform="translate(50.877219, 17.842739)"><g><path d="M 7.640625 -3.703125 C 7.640625 -2.484375 7.335938 -1.546875 6.734375 -0.890625 C 6.128906 -0.234375 5.257812 0.09375 4.125 0.09375 C 2.988281 0.09375 2.117188 -0.234375 1.515625 -0.890625 C 0.910156 -1.546875 0.609375 -2.488281 0.609375 -3.71875 C 0.609375 -4.945312 0.910156 -5.882812 1.515625 -6.53125 C 2.117188 -7.1875 2.988281 -7.515625 4.125 -7.515625 C 5.269531 -7.515625 6.140625 -7.1875 6.734375 -6.53125 C 7.335938 -5.875 7.640625 -4.929688 7.640625 -3.703125 Z M 2.25 -3.703125 C 2.25 -2.878906 2.40625 -2.257812 2.71875 -1.84375 C 3.03125 -1.425781 3.5 -1.21875 4.125 -1.21875 C 5.375 -1.21875 6 -2.046875 6 -3.703125 C 6 -5.367188 5.375 -6.203125 4.125 -6.203125 C 3.507812 -6.203125 3.039062 -5.992188 2.71875 -5.578125 C 2.40625 -5.160156 2.25 -4.535156 2.25 -3.703125 Z M 2.25 -3.703125 "/></g></g></g><g fill="#737373" fill-opacity="1"><g transform="translate(58.550498, 17.842739)"><g><path d="M 2.5 -4.109375 L 3 -4.109375 C 3.5 -4.109375 3.863281 -4.191406 4.09375 -4.359375 C 4.332031 -4.523438 4.453125 -4.785156 4.453125 -5.140625 C 4.453125 -5.492188 4.332031 -5.742188 4.09375 -5.890625 C 3.851562 -6.035156 3.476562 -6.109375 2.96875 -6.109375 L 2.5 -6.109375 Z M 2.5 -2.84375 L 2.5 0 L 0.9375 0 L 0.9375 -7.390625 L 3.078125 -7.390625 C 4.085938 -7.390625 4.832031 -7.207031 5.3125 -6.84375 C 5.800781 -6.476562 6.046875 -5.925781 6.046875 -5.1875 C 6.046875 -4.75 5.925781 -4.359375 5.6875 -4.015625 C 5.445312 -3.679688 5.101562 -3.414062 4.65625 -3.21875 C 5.769531 -1.5625 6.5 -0.488281 6.84375 0 L 5.09375 0 L 3.328125 -2.84375 Z M 2.5 -2.84375 "/></g></g></g><g fill="#737373" fill-opacity="1"><g transform="translate(64.817842, 17.842739)"><g><path d="M 0.9375 0 L 0.9375 -7.390625 L 2.5 -7.390625 L 2.5 0 Z M 0.9375 0 "/></g></g></g><g fill="#737373" fill-opacity="1"><g transform="translate(67.676552, 17.842739)"><g><path d="M 3.734375 -4.15625 L 6.671875 -4.15625 L 6.671875 -0.3125 C 6.191406 -0.164062 5.742188 -0.0625 5.328125 0 C 4.910156 0.0625 4.484375 0.09375 4.046875 0.09375 C 2.929688 0.09375 2.078125 -0.226562 1.484375 -0.875 C 0.898438 -1.53125 0.609375 -2.472656 0.609375 -3.703125 C 0.609375 -4.898438 0.945312 -5.832031 1.625 -6.5 C 2.3125 -7.164062 3.257812 -7.5 4.46875 -7.5 C 5.226562 -7.5 5.957031 -7.347656 6.65625 -7.046875 L 6.140625 -5.796875 C 5.597656 -6.066406 5.035156 -6.203125 4.453125 -6.203125 C 3.773438 -6.203125 3.234375 -5.972656 2.828125 -5.515625 C 2.421875 -5.054688 2.21875 -4.441406 2.21875 -3.671875 C 2.21875 -2.867188 2.378906 -2.253906 2.703125 -1.828125 C 3.035156 -1.410156 3.515625 -1.203125 4.140625 -1.203125 C 4.472656 -1.203125 4.804688 -1.238281 5.140625 -1.3125 L 5.140625 -2.84375 L 3.734375 -2.84375 Z M 3.734375 -4.15625 "/></g></g></g><g fill="#737373" fill-opacity="1"><g transform="translate(74.606406, 17.842739)"><g><path d="M 0.9375 0 L 0.9375 -7.390625 L 2.5 -7.390625 L 2.5 0 Z M 0.9375 0 "/></g></g></g><g fill="#737373" fill-opacity="1"><g transform="translate(77.465116, 17.842739)"><g><path d="M 7.484375 0 L 5.5 0 L 2.28125 -5.59375 L 2.234375 -5.59375 C 2.296875 -4.601562 2.328125 -3.898438 2.328125 -3.484375 L 2.328125 0 L 0.9375 0 L 0.9375 -7.390625 L 2.90625 -7.390625 L 6.125 -1.859375 L 6.15625 -1.859375 C 6.101562 -2.816406 6.078125 -3.492188 6.078125 -3.890625 L 6.078125 -7.390625 L 7.484375 -7.390625 Z M 7.484375 0 "/></g></g></g><g fill="#737373" fill-opacity="1"><g transform="translate(85.3154, 17.842739)"><g><path d="M 5.453125 0 L 4.921875 -1.765625 L 2.21875 -1.765625 L 1.6875 0 L 0 0 L 2.609375 -7.421875 L 4.53125 -7.421875 L 7.140625 0 Z M 4.546875 -3.078125 C 4.046875 -4.671875 3.765625 -5.570312 3.703125 -5.78125 C 3.640625 -5.988281 3.597656 -6.15625 3.578125 -6.28125 C 3.460938 -5.84375 3.144531 -4.773438 2.625 -3.078125 Z M 4.546875 -3.078125 "/></g></g></g><g fill="#737373" fill-opacity="1"><g transform="translate(91.89124, 17.842739)"><g><path d="M 0.9375 0 L 0.9375 -7.390625 L 2.5 -7.390625 L 2.5 -1.296875 L 5.5 -1.296875 L 5.5 0 Z M 0.9375 0 "/></g></g></g><g fill="#737373" fill-opacity="1"><g transform="translate(97.172406, 17.842739)"><g/></g></g><g fill="#737373" fill-opacity="1"><g transform="translate(99.292747, 17.842739)"><g><path d="M 2.5 -3.921875 L 3.015625 -3.921875 C 3.492188 -3.921875 3.851562 -4.015625 4.09375 -4.203125 C 4.332031 -4.390625 4.453125 -4.664062 4.453125 -5.03125 C 4.453125 -5.394531 4.351562 -5.664062 4.15625 -5.84375 C 3.957031 -6.019531 3.644531 -6.109375 3.21875 -6.109375 L 2.5 -6.109375 Z M 6.046875 -5.09375 C 6.046875 -4.289062 5.796875 -3.675781 5.296875 -3.25 C 4.796875 -2.832031 4.085938 -2.625 3.171875 -2.625 L 2.5 -2.625 L 2.5 0 L 0.9375 0 L 0.9375 -7.390625 L 3.296875 -7.390625 C 4.191406 -7.390625 4.875 -7.195312 5.34375 -6.8125 C 5.8125 -6.425781 6.046875 -5.851562 6.046875 -5.09375 Z M 6.046875 -5.09375 "/></g></g></g><g fill="#737373" fill-opacity="1"><g transform="translate(105.22631, 17.842739)"><g><path d="M 2.5 -4.109375 L 3 -4.109375 C 3.5 -4.109375 3.863281 -4.191406 4.09375 -4.359375 C 4.332031 -4.523438 4.453125 -4.785156 4.453125 -5.140625 C 4.453125 -5.492188 4.332031 -5.742188 4.09375 -5.890625 C 3.851562 -6.035156 3.476562 -6.109375 2.96875 -6.109375 L 2.5 -6.109375 Z M 2.5 -2.84375 L 2.5 0 L 0.9375 0 L 0.9375 -7.390625 L 3.078125 -7.390625 C 4.085938 -7.390625 4.832031 -7.207031 5.3125 -6.84375 C 5.800781 -6.476562 6.046875 -5.925781 6.046875 -5.1875 C 6.046875 -4.75 5.925781 -4.359375 5.6875 -4.015625 C 5.445312 -3.679688 5.101562 -3.414062 4.65625 -3.21875 C 5.769531 -1.5625 6.5 -0.488281 6.84375 0 L 5.09375 0 L 3.328125 -2.84375 Z M 2.5 -2.84375 "/></g></g></g><g fill="#737373" fill-opacity="1"><g transform="translate(111.493657, 17.842739)"><g><path d="M 7.640625 -3.703125 C 7.640625 -2.484375 7.335938 -1.546875 6.734375 -0.890625 C 6.128906 -0.234375 5.257812 0.09375 4.125 0.09375 C 2.988281 0.09375 2.117188 -0.234375 1.515625 -0.890625 C 0.910156 -1.546875 0.609375 -2.488281 0.609375 -3.71875 C 0.609375 -4.945312 0.910156 -5.882812 1.515625 -6.53125 C 2.117188 -7.1875 2.988281 -7.515625 4.125 -7.515625 C 5.269531 -7.515625 6.140625 -7.1875 6.734375 -6.53125 C 7.335938 -5.875 7.640625 -4.929688 7.640625 -3.703125 Z M 2.25 -3.703125 C 2.25 -2.878906 2.40625 -2.257812 2.71875 -1.84375 C 3.03125 -1.425781 3.5 -1.21875 4.125 -1.21875 C 5.375 -1.21875 6 -2.046875 6 -3.703125 C 6 -5.367188 5.375 -6.203125 4.125 -6.203125 C 3.507812 -6.203125 3.039062 -5.992188 2.71875 -5.578125 C 2.40625 -5.160156 2.25 -4.535156 2.25 -3.703125 Z M 2.25 -3.703125 "/></g></g></g><g fill="#737373" fill-opacity="1"><g transform="translate(119.166938, 17.842739)"><g><path d="M 7.0625 -3.765625 C 7.0625 -2.546875 6.710938 -1.613281 6.015625 -0.96875 C 5.328125 -0.320312 4.332031 0 3.03125 0 L 0.9375 0 L 0.9375 -7.390625 L 3.25 -7.390625 C 4.457031 -7.390625 5.394531 -7.070312 6.0625 -6.4375 C 6.726562 -5.800781 7.0625 -4.910156 7.0625 -3.765625 Z M 5.4375 -3.734375 C 5.4375 -5.316406 4.734375 -6.109375 3.328125 -6.109375 L 2.5 -6.109375 L 2.5 -1.296875 L 3.171875 -1.296875 C 4.679688 -1.296875 5.4375 -2.109375 5.4375 -3.734375 Z M 5.4375 -3.734375 "/></g></g></g><g fill="#737373" fill-opacity="1"><g transform="translate(126.263685, 17.842739)"><g><path d="M 6.953125 -7.390625 L 6.953125 -2.609375 C 6.953125 -2.066406 6.828125 -1.585938 6.578125 -1.171875 C 6.335938 -0.765625 5.984375 -0.453125 5.515625 -0.234375 C 5.054688 -0.015625 4.515625 0.09375 3.890625 0.09375 C 2.929688 0.09375 2.1875 -0.144531 1.65625 -0.625 C 1.132812 -1.113281 0.875 -1.78125 0.875 -2.625 L 0.875 -7.390625 L 2.4375 -7.390625 L 2.4375 -2.875 C 2.4375 -2.300781 2.550781 -1.878906 2.78125 -1.609375 C 3.007812 -1.347656 3.390625 -1.21875 3.921875 -1.21875 C 4.429688 -1.21875 4.800781 -1.347656 5.03125 -1.609375 C 5.269531 -1.878906 5.390625 -2.300781 5.390625 -2.875 L 5.390625 -7.390625 Z M 6.953125 -7.390625 "/></g></g></g><g fill="#737373" fill-opacity="1"><g transform="translate(133.522266, 17.842739)"><g><path d="M 4.078125 -6.203125 C 3.484375 -6.203125 3.023438 -5.976562 2.703125 -5.53125 C 2.378906 -5.082031 2.21875 -4.460938 2.21875 -3.671875 C 2.21875 -2.023438 2.835938 -1.203125 4.078125 -1.203125 C 4.585938 -1.203125 5.210938 -1.332031 5.953125 -1.59375 L 5.953125 -0.28125 C 5.347656 -0.03125 4.671875 0.09375 3.921875 0.09375 C 2.847656 0.09375 2.023438 -0.226562 1.453125 -0.875 C 0.890625 -1.53125 0.609375 -2.46875 0.609375 -3.6875 C 0.609375 -4.457031 0.742188 -5.128906 1.015625 -5.703125 C 1.296875 -6.285156 1.695312 -6.726562 2.21875 -7.03125 C 2.75 -7.34375 3.367188 -7.5 4.078125 -7.5 C 4.796875 -7.5 5.515625 -7.328125 6.234375 -6.984375 L 5.734375 -5.703125 C 5.453125 -5.835938 5.171875 -5.953125 4.890625 -6.046875 C 4.617188 -6.148438 4.347656 -6.203125 4.078125 -6.203125 Z M 4.078125 -6.203125 "/></g></g></g><g fill="#737373" fill-opacity="1"><g transform="translate(139.551919, 17.842739)"><g><path d="M 3.78125 0 L 2.21875 0 L 2.21875 -6.09375 L 0.203125 -6.09375 L 0.203125 -7.390625 L 5.796875 -7.390625 L 5.796875 -6.09375 L 3.78125 -6.09375 Z M 3.78125 0 "/></g></g></g></svg>