<svg xmlns="http://www.w3.org/2000/svg" xmlns:xlink="http://www.w3.org/1999/xlink" width="600" zoomAndPan="magnify" viewBox="0 0 450 449.999984" height="600" preserveAspectRatio="xMidYMid meet" version="1.0"><path fill="#aad8f4" d="M 450.105469 225.089844 C 450.105469 281.007812 429.679688 332.199219 395.914062 371.554688 C 385.03125 384.238281 372.734375 395.703125 359.328125 405.671875 C 321.863281 433.59375 275.414062 450.105469 225.105469 450.105469 C 192.949219 450.105469 162.394531 443.367188 134.734375 431.214844 C 119.070312 424.351562 104.359375 415.761719 90.8125 405.671875 C 77.421875 395.667969 65.164062 384.238281 54.277344 371.570312 C 20.515625 332.21875 0.0703125 281.023438 0.0703125 225.089844 C 0.0703125 100.8125 100.832031 0.0703125 225.105469 0.0703125 C 310.378906 0.0703125 384.574219 47.523438 422.746094 117.464844 C 440.191406 149.429688 450.105469 186.101562 450.105469 225.089844 Z M 450.105469 225.089844 " fill-opacity="1" fill-rule="nonzero"/><path fill="#5ec1ed" d="M 450.105469 225.089844 C 450.105469 281.007812 429.679688 332.199219 395.914062 371.554688 C 385.03125 384.238281 372.734375 395.703125 359.328125 405.671875 C 321.863281 433.59375 275.414062 450.105469 225.105469 450.105469 C 192.949219 450.105469 162.394531 443.367188 134.734375 431.214844 L 235.65625 89.066406 L 224.789062 61.828125 L 279.71875 67.101562 L 422.746094 117.464844 C 440.191406 149.429688 450.105469 186.101562 450.105469 225.089844 Z M 450.105469 225.089844 " fill-opacity="1" fill-rule="nonzero"/><path fill="#fbcb98" d="M 149.410156 152.375 C 147.171875 149.921875 143.730469 148.757812 141.792969 152.128906 C 139.003906 156.960938 139.285156 163.453125 139.691406 168.796875 C 140.027344 173.121094 140.554688 177.460938 141.6875 181.675781 C 142.65625 185.308594 143.996094 190.320312 147.242188 192.578125 C 147.984375 193.089844 148.988281 193.601562 149.921875 193.792969 C 150.433594 193.902344 153.539062 193.953125 152.480469 192.613281 " fill-opacity="1" fill-rule="nonzero"/><path fill="#fbcb98" d="M 300.515625 152.375 C 302.757812 149.921875 306.199219 148.757812 308.136719 152.128906 C 310.925781 156.960938 310.644531 163.453125 310.238281 168.796875 C 309.902344 173.121094 309.371094 177.460938 308.242188 181.675781 C 307.273438 185.308594 305.933594 190.320312 302.6875 192.578125 C 301.945312 193.089844 300.941406 193.601562 300.003906 193.792969 C 299.496094 193.902344 296.390625 193.953125 297.449219 192.613281 " fill-opacity="1" fill-rule="nonzero"/><path fill="#fbcb98" d="M 395.914062 371.554688 C 385.03125 384.238281 372.753906 395.703125 359.328125 405.671875 L 90.8125 405.671875 C 77.40625 395.667969 65.144531 384.238281 54.277344 371.570312 C 64.476562 345.589844 86.082031 324.859375 113.957031 316.359375 L 160.347656 298.542969 C 178.269531 292.648438 177.460938 282.734375 177.460938 263.859375 L 177.460938 223.710938 L 272.699219 223.710938 L 272.699219 263.824219 C 272.699219 282.71875 273.652344 293.9375 291.609375 299.8125 L 336.292969 316.304688 C 364.164062 324.84375 385.753906 345.570312 395.914062 371.554688 Z M 395.914062 371.554688 " fill-opacity="1" fill-rule="nonzero"/><path fill="#092838" d="M 395.914062 371.554688 C 354.65625 419.640625 293.445312 450.105469 225.105469 450.105469 C 156.769531 450.105469 95.558594 419.640625 54.296875 371.570312 C 64.492188 345.589844 86.101562 324.859375 113.972656 316.359375 L 160.367188 298.542969 C 165.589844 296.8125 169.222656 294.75 171.746094 292.226562 C 171.921875 292.402344 172.113281 292.5625 172.292969 292.738281 C 202.015625 320.554688 247.648438 322.550781 279.4375 297.113281 C 280.460938 296.285156 281.378906 295.632812 282.152344 295.15625 C 284.605469 296.972656 287.691406 298.523438 291.609375 299.8125 L 336.292969 316.304688 C 364.164062 324.84375 385.753906 345.570312 395.914062 371.554688 Z M 395.914062 371.554688 " fill-opacity="1" fill-rule="nonzero"/><path fill="#fbcb98" d="M 300.90625 144.191406 C 300.710938 90.421875 267.335938 61.828125 224.789062 61.828125 C 224.769531 61.828125 224.804688 61.828125 224.789062 61.828125 C 224.769531 61.828125 221.578125 58.316406 221.542969 58.316406 C 178.996094 58.316406 149.605469 90.421875 149.429688 144.207031 C 149.339844 168.726562 150.1875 184.867188 152.675781 202.667969 C 160.417969 257.988281 211.347656 273.492188 225.089844 273.492188 C 241.933594 273.492188 289.914062 257.988281 297.660156 202.667969 C 300.148438 184.851562 300.992188 168.710938 300.90625 144.191406 Z M 300.90625 144.191406 " fill-opacity="1" fill-rule="nonzero"/><path fill="#8e4a33" d="M 156.378906 161.105469 C 159.027344 145.25 163.929688 129.761719 168.304688 114.203125 C 171.515625 102.753906 177.355469 89.046875 189.207031 88.289062 C 201.714844 87.496094 210.710938 102.367188 223.234375 102.613281 C 231.492188 102.769531 238.265625 96.5625 244.863281 91.570312 C 251.460938 86.59375 260.6875 82.503906 267.636719 86.964844 C 272.980469 90.386719 273.511719 95.804688 275.1875 101.183594 C 277.707031 109.332031 281.007812 117.289062 284.199219 125.28125 C 290.9375 142.179688 297.746094 159.378906 299.316406 177.511719 C 304.453125 155.269531 305.105469 132 301.242188 109.511719 C 296.035156 79.1875 278.960938 58.390625 248.230469 51.597656 C 234.683594 48.597656 220.730469 47.382812 207.148438 44.71875 C 210.515625 48.722656 211.082031 54.136719 212.050781 59.128906 C 205.859375 60.222656 198.820312 57.648438 192.277344 58.035156 C 184.144531 58.53125 176.101562 60.929688 169.097656 65.09375 C 157.316406 72.078125 148.546875 83.984375 145.355469 97.304688 C 143.714844 104.128906 143.503906 111.222656 143.589844 118.242188 C 143.835938 137.152344 148.777344 154.703125 149.851562 173.242188 C 150.03125 176.402344 149.851562 179.066406 149.519531 182.0625 C 149.253906 184.5 149.640625 187.65625 150.417969 189.929688 C 149.484375 187.160156 155.390625 167.246094 156.222656 162.058594 C 156.273438 161.761719 156.328125 161.425781 156.378906 161.105469 Z M 156.378906 161.105469 " fill-opacity="1" fill-rule="nonzero"/><path fill="#9f533a" d="M 256.839844 204.097656 C 248.144531 200.496094 242.058594 193.601562 234.015625 189.085938 C 224.699219 183.863281 215.597656 187.777344 207.308594 193 C 198.894531 198.308594 190.496094 203.761719 180.160156 203.796875 C 170.367188 203.832031 161.144531 199.546875 154.050781 192.984375 C 152.871094 191.890625 151.757812 190.726562 150.683594 189.542969 C 151.140625 194.375 151.6875 199.140625 152.375 204.007812 C 160.121094 259.328125 211.046875 274.832031 224.789062 274.832031 C 241.632812 274.832031 289.617188 259.328125 297.359375 204.007812 C 297.675781 201.769531 300.359375 188.820312 300.605469 186.632812 C 289.210938 196.476562 271.605469 210.199219 256.839844 204.097656 Z M 235.074219 234.226562 C 235.074219 234.226562 233.503906 230.714844 231.5625 230.714844 L 220.976562 230.714844 C 219.039062 230.714844 217.46875 232.285156 217.46875 234.226562 L 215.984375 242.058594 C 215.984375 244.28125 213.832031 245.851562 211.71875 245.199219 C 204.359375 242.957031 196.652344 238.476562 188.910156 230.714844 C 188.910156 230.714844 200.621094 222.195312 211.027344 215.738281 C 219.972656 210.199219 231.246094 210.550781 240.207031 216.054688 C 245.585938 219.355469 251.546875 223.710938 261.636719 230.714844 C 261.636719 230.714844 252.113281 240.433594 237.878906 244.878906 C 235.761719 245.550781 235.074219 236.464844 235.074219 234.226562 Z M 235.074219 234.226562 " fill-opacity="1" fill-rule="nonzero"/></svg>